<?xml version="1.0" encoding="UTF-8" standalone="no"?>
<svg
   xmlns:dc="http://purl.org/dc/elements/1.1/"
   xmlns:cc="http://creativecommons.org/ns#"
   xmlns:rdf="http://www.w3.org/1999/02/22-rdf-syntax-ns#"
   xmlns:svg="http://www.w3.org/2000/svg"
   xmlns="http://www.w3.org/2000/svg"
   xmlns:xlink="http://www.w3.org/1999/xlink"
   xmlns:sodipodi="http://sodipodi.sourceforge.net/DTD/sodipodi-0.dtd"
   xmlns:inkscape="http://www.inkscape.org/namespaces/inkscape"
   inkscape:version="1.0 (1.0+r73+1)"
   sodipodi:docname="fitmodelprocess.svg"
   id="svg8"
   version="1.1"
   viewBox="0 0 250 100.1"
   height="100.1mm"
   width="250mm">
  <defs
     id="defs2">
    <rect
       id="rect1814"
       height="37.478939"
       width="54.496288"
       y="38.703236"
       x="217.32909" />
    <rect
       id="rect1776"
       height="27.95372"
       width="52.09502"
       y="41.961636"
       x="145.27406" />
    <rect
       id="rect1770"
       height="11.942335"
       width="14.723429"
       y="56.672787"
       x="140.58006" />
    <style
       type="text/css"
       id="style10">
*{stroke-linecap:butt;stroke-linejoin:round;}
  </style>
    <path
       d="M 0,0 V 3.5"
       id="mf2c09c39dd"
       style="stroke:#000000;stroke-width:0.8" />
    <path
       d="m 31.78125,66.40625 q -7.609375,0 -11.453125,-7.5 Q 16.5,51.421875 16.5,36.375 q 0,-14.984375 3.828125,-22.484375 3.84375,-7.5 11.453125,-7.5 7.671875,0 11.5,7.5 3.84375,7.5 3.84375,22.484375 0,15.046875 -3.84375,22.53125 -3.828125,7.5 -11.5,7.5 z m 0,7.8125 q 12.265625,0 18.734375,-9.703125 6.46875,-9.6875 6.46875,-28.140625 0,-18.40625 -6.46875,-28.109375 -6.46875,-9.6875 -18.734375,-9.6875 -12.25,0 -18.71875,9.6875 Q 6.59375,17.96875 6.59375,36.375 q 0,18.453125 6.46875,28.140625 6.46875,9.703125 18.71875,9.703125 z"
       id="DejaVuSans-48" />
    <path
       d="m 10.796875,72.90625 h 38.71875 v -8.3125 h -29.6875 V 46.734375 q 2.140625,0.734375 4.28125,1.09375 2.15625,0.359375 4.3125,0.359375 Q 40.625,48.1875 47.75,41.5 54.890625,34.8125 54.890625,23.390625 54.890625,11.625 47.5625,5.09375 40.234375,-1.421875 26.90625,-1.421875 q -4.59375,0 -9.359375,0.78125 -4.75,0.78125 -9.828125,2.34375 V 11.625 q 4.390625,-2.390625 9.078125,-3.5625 4.6875,-1.171875 9.90625,-1.171875 8.453125,0 13.375,4.4375 4.9375,4.4375 4.9375,12.0625 0,7.609375 -4.9375,12.046875 -4.921875,4.453125 -13.375,4.453125 -3.953125,0 -7.890625,-0.875 -3.921875,-0.875 -8.015625,-2.734375 z"
       id="DejaVuSans-53" />
    <path
       d="m 12.40625,8.296875 h 16.109375 v 55.625 L 10.984375,60.40625 v 8.984375 l 17.4375,3.515625 H 38.28125 V 8.296875 H 54.390625 V 0 H 12.40625 Z"
       id="DejaVuSans-49" />
    <path
       d="M 19.1875,8.296875 H 53.609375 V 0 H 7.328125 v 8.296875 q 5.609375,5.8125 15.296875,15.59375 9.703125,9.796875 12.1875,12.640625 4.734375,5.3125 6.609375,9 1.890625,3.6875 1.890625,7.25 0,5.8125 -4.078125,9.46875 -4.078125,3.671875 -10.625,3.671875 -4.640625,0 -9.796875,-1.609375 -5.140625,-1.609375 -11,-4.890625 v 9.96875 Q 13.765625,71.78125 18.9375,73 q 5.1875,1.21875 9.484375,1.21875 11.328125,0 18.0625,-5.671875 6.734375,-5.65625 6.734375,-15.125 0,-4.5 -1.6875,-8.53125 Q 49.859375,40.875 45.40625,35.40625 44.1875,33.984375 37.640625,27.21875 31.109375,20.453125 19.1875,8.296875 Z"
       id="DejaVuSans-50" />
    <path
       d="M 40.578125,39.3125 Q 47.65625,37.796875 51.625,33 q 3.984375,-4.78125 3.984375,-11.8125 0,-10.78125 -7.421875,-16.703125 -7.421875,-5.90625 -21.09375,-5.90625 -4.578125,0 -9.4375,0.90625 -4.859375,0.90625 -10.03125,2.71875 v 9.515625 q 4.09375,-2.390625 8.96875,-3.609375 4.890625,-1.21875 10.21875,-1.21875 9.265625,0 14.125,3.65625 4.859375,3.65625 4.859375,10.640625 0,6.453125 -4.515625,10.078125 -4.515625,3.640625 -12.5625,3.640625 h -8.5 v 8.109375 h 8.890625 q 7.265625,0 11.125,2.90625 3.859375,2.90625 3.859375,8.375 0,5.609375 -3.984375,8.609375 -3.96875,3.015625 -11.390625,3.015625 -4.0625,0 -8.703125,-0.890625 Q 15.375,64.15625 9.8125,62.3125 v 8.78125 q 5.625,1.5625 10.53125,2.34375 4.90625,0.78125 9.25,0.78125 11.234375,0 17.765625,-5.109375 6.546875,-5.09375 6.546875,-13.78125 0,-6.0625 -3.46875,-10.234375 -3.46875,-4.171875 -9.859375,-5.78125 z"
       id="DejaVuSans-51" />
    <path
       d="M 37.796875,64.3125 12.890625,25.390625 h 24.90625 z m -2.59375,8.59375 h 12.40625 V 25.390625 h 10.40625 V 17.1875 H 47.609375 V 0 h -9.8125 V 17.1875 H 4.890625 v 9.515625 z"
       id="DejaVuSans-52" />
    <path
       d="m 9.8125,72.90625 h 9.859375 V 43.015625 h 35.84375 V 72.90625 H 65.375 V 0 H 55.515625 V 34.71875 H 19.671875 V 0 H 9.8125 Z"
       id="DejaVuSans-72" />
    <path
       d="M 9.421875,54.6875 H 18.40625 V 0 H 9.421875 Z m 0,21.296875 H 18.40625 V 64.59375 H 9.421875 Z"
       id="DejaVuSans-105" />
    <path
       d="m 45.40625,27.984375 q 0,9.765625 -4.03125,15.125 -4.015625,5.375 -11.296875,5.375 -7.21875,0 -11.25,-5.375 -4.03125,-5.359375 -4.03125,-15.125 0,-9.71875 4.03125,-15.09375 4.03125,-5.375 11.25,-5.375 7.28125,0 11.296875,5.375 4.03125,5.375 4.03125,15.09375 z M 54.390625,6.78125 q 0,-13.953125 -6.203125,-20.765625 -6.1875,-6.8125 -18.984375,-6.8125 -4.734375,0 -8.9375,0.703125 -4.203125,0.703125 -8.15625,2.171875 V -9.1875 q 3.953125,-2.140625 7.8125,-3.15625 3.859375,-1.03125 7.859375,-1.03125 8.84375,0 13.234375,4.609375 4.390625,4.609375 4.390625,13.9375 V 9.625 Q 42.625,4.78125 38.28125,2.390625 33.9375,0 27.875,0 17.828125,0 11.671875,7.65625 q -6.15625,7.671875 -6.15625,20.328125 0,12.6875 6.15625,20.34375 Q 17.828125,56 27.875,56 q 6.0625,0 10.40625,-2.390625 4.34375,-2.390625 7.125,-7.21875 V 54.6875 h 8.984375 z"
       id="DejaVuSans-103" />
    <path
       d="M 54.890625,33.015625 V 0 H 45.90625 v 32.71875 q 0,7.765625 -3.03125,11.609375 -3.03125,3.859375 -9.078125,3.859375 -7.28125,0 -11.484375,-4.640625 -4.203125,-4.625 -4.203125,-12.640625 V 0 h -9.03125 v 75.984375 h 9.03125 V 46.1875 q 3.234375,4.9375 7.59375,7.375 4.375,2.4375 10.09375,2.4375 9.421875,0 14.25,-5.828125 4.84375,-5.828125 4.84375,-17.15625 z"
       id="DejaVuSans-104" />
    <path
       d="M 4.203125,54.6875 H 13.1875 L 24.421875,12.015625 35.59375,54.6875 H 46.1875 L 57.421875,12.015625 68.609375,54.6875 H 77.59375 L 63.28125,0 H 52.6875 L 40.921875,44.828125 29.109375,0 H 18.5 Z"
       id="DejaVuSans-119" />
    <path
       d="m 34.28125,27.484375 q -10.890625,0 -15.09375,-2.484375 -4.203125,-2.484375 -4.203125,-8.5 0,-4.78125 3.15625,-7.59375 3.15625,-2.796875 8.5625,-2.796875 7.484375,0 12,5.296875 4.515625,5.296875 4.515625,14.078125 v 2 z m 17.921875,3.71875 V 0 H 43.21875 v 8.296875 q -3.078125,-4.96875 -7.671875,-7.34375 -4.59375,-2.375 -11.234375,-2.375 -8.390625,0 -13.359375,4.71875 Q 6,8.015625 6,15.921875 q 0,9.21875 6.171875,13.90625 6.1875,4.6875 18.4375,4.6875 H 43.21875 v 0.890625 q 0,6.203125 -4.078125,9.59375 -4.078125,3.390625 -11.453125,3.390625 -4.6875,0 -9.140625,-1.125 -4.4375,-1.125 -8.53125,-3.375 v 8.3125 q 4.921875,1.90625 9.5625,2.84375 Q 24.21875,56 28.609375,56 q 11.875,0 17.734375,-6.15625 5.859375,-6.140625 5.859375,-18.640625 z"
       id="DejaVuSans-97" />
    <path
       d="M 32.171875,-5.078125 Q 28.375,-14.84375 24.75,-17.8125 q -3.609375,-2.984375 -9.65625,-2.984375 h -7.1875 v 7.515625 h 5.28125 q 3.703125,0 5.75,1.765625 2.0625,1.75 4.546875,8.296875 L 25.09375,0.875 2.984375,54.6875 H 12.5 L 29.59375,11.921875 46.6875,54.6875 h 9.515625 z"
       id="DejaVuSans-121" />
    <path
       d="m 4.890625,31.390625 h 26.3125 v -8 h -26.3125 z"
       id="DejaVuSans-45" />
    <path
       d="M 9.8125,72.90625 H 24.515625 L 43.109375,23.296875 61.8125,72.90625 H 76.515625 V 0 h -9.625 v 64.015625 l -18.796875,-50 H 38.1875 l -18.796875,50 V 0 H 9.8125 Z"
       id="DejaVuSans-77" />
    <path
       d="M 19.671875,64.796875 V 37.40625 h 12.40625 q 6.890625,0 10.640625,3.5625 3.765625,3.5625 3.765625,10.15625 0,6.546875 -3.765625,10.109375 -3.75,3.5625 -10.640625,3.5625 z M 9.8125,72.90625 h 22.265625 q 12.265625,0 18.53125,-5.546875 6.28125,-5.546875 6.28125,-16.234375 0,-10.796875 -6.28125,-16.3125 -6.265625,-5.515625 -18.53125,-5.515625 H 19.671875 V 0 H 9.8125 Z"
       id="DejaVuSans-80" />
    <path
       d="M 59.515625,10.40625 V 29.984375 H 43.40625 v 8.109375 h 25.875 V 6.78125 Q 63.578125,2.734375 56.6875,0.65625 49.8125,-1.421875 42,-1.421875 q -17.09375,0 -26.75,9.984375 -9.640625,10 -9.640625,27.8125 0,17.875 9.640625,27.859375 9.65625,9.984375 26.75,9.984375 7.125,0 13.546875,-1.765625 6.421875,-1.75 11.84375,-5.171875 v -10.5 q -5.46875,4.640625 -11.625,6.984375 -6.15625,2.34375 -12.9375,2.34375 -13.390625,0 -20.109375,-7.46875 -6.703125,-7.46875 -6.703125,-22.265625 0,-14.75 6.703125,-22.21875 6.71875,-7.46875 20.109375,-7.46875 5.21875,0 9.3125,0.90625 4.109375,0.90625 7.375,2.8125 z"
       id="DejaVuSans-71" />
    <path
       d="M 0,0 H -3.5"
       id="me2b02cb958"
       style="stroke:#000000;stroke-width:0.8" />
    <path
       d="m 44.390625,34.1875 q 3.171875,-1.078125 6.171875,-4.59375 3,-3.515625 6.03125,-9.671875 L 66.609375,0 H 56 l -9.3125,18.703125 q -3.625,7.328125 -7.015625,9.71875 -3.390625,2.390625 -9.25,2.390625 h -10.75 V 0 H 9.8125 v 72.90625 h 22.265625 q 12.5,0 18.65625,-5.234375 6.15625,-5.21875 6.15625,-15.765625 0,-6.890625 -3.203125,-11.4375 -3.203125,-4.53125 -9.296875,-6.28125 z m -24.71875,30.609375 v -25.875 h 12.40625 q 7.125,0 10.765625,3.296875 3.640625,3.296875 3.640625,9.6875 0,6.390625 -3.640625,9.640625 -3.640625,3.25 -10.765625,3.25 z"
       id="DejaVuSans-82" />
    <path
       d="m 9.8125,72.90625 h 9.859375 V 0 H 9.8125 Z"
       id="DejaVuSans-73" />
    <path
       d="M 64.40625,67.28125 V 56.890625 q -4.984375,4.640625 -10.625,6.921875 -5.640625,2.296875 -11.984375,2.296875 -12.5,0 -19.140625,-7.640625 -6.640625,-7.640625 -6.640625,-22.09375 0,-14.40625 6.640625,-22.046875 Q 29.296875,6.6875 41.796875,6.6875 q 6.34375,0 11.984375,2.296875 5.640625,2.296875 10.625,6.9375 V 5.609375 Q 59.234375,2.09375 53.4375,0.328125 q -5.78125,-1.75 -12.21875,-1.75 -16.5625,0 -26.09375,10.125 Q 5.609375,18.84375 5.609375,36.375 q 0,17.578125 9.515625,27.703125 9.53125,10.140625 26.09375,10.140625 6.53125,0 12.3125,-1.734375 5.796875,-1.734375 10.875,-5.203125 z"
       id="DejaVuSans-67" />
    <path
       d="m 9.8125,72.90625 h 46.09375 v -8.3125 H 19.671875 V 43.015625 h 34.71875 V 34.71875 H 19.671875 V 8.296875 H 56.78125 V 0 H 9.8125 Z"
       id="DejaVuSans-69" />
    <clipPath
       id="p5bff75efea">
      <rect
         height="289.39679"
         width="372.74399"
         x="60.119999"
         y="45.1008"
         id="rect383" />
    </clipPath>
    <rect
       id="rect1814-7"
       height="37.478939"
       width="54.496288"
       y="38.703236"
       x="217.32909" />
    <rect
       id="rect1776-5"
       height="27.95372"
       width="52.09502"
       y="41.961636"
       x="145.27406" />
    <rect
       id="rect1770-3"
       height="11.942335"
       width="14.723429"
       y="56.672787"
       x="140.58006" />
    <style
       type="text/css"
       id="style10-5">
*{stroke-linecap:butt;stroke-linejoin:round;}
  </style>
    <path
       d="M 0,0 V 3.5"
       id="mf2c09c39dd-6"
       style="stroke:#000000;stroke-width:0.8" />
    <path
       d="m 31.78125,66.40625 q -7.609375,0 -11.453125,-7.5 Q 16.5,51.421875 16.5,36.375 q 0,-14.984375 3.828125,-22.484375 3.84375,-7.5 11.453125,-7.5 7.671875,0 11.5,7.5 3.84375,7.5 3.84375,22.484375 0,15.046875 -3.84375,22.53125 -3.828125,7.5 -11.5,7.5 z m 0,7.8125 q 12.265625,0 18.734375,-9.703125 6.46875,-9.6875 6.46875,-28.140625 0,-18.40625 -6.46875,-28.109375 -6.46875,-9.6875 -18.734375,-9.6875 -12.25,0 -18.71875,9.6875 Q 6.59375,17.96875 6.59375,36.375 q 0,18.453125 6.46875,28.140625 6.46875,9.703125 18.71875,9.703125 z"
       id="DejaVuSans-48-2" />
    <path
       d="m 10.796875,72.90625 h 38.71875 v -8.3125 h -29.6875 V 46.734375 q 2.140625,0.734375 4.28125,1.09375 2.15625,0.359375 4.3125,0.359375 Q 40.625,48.1875 47.75,41.5 54.890625,34.8125 54.890625,23.390625 54.890625,11.625 47.5625,5.09375 40.234375,-1.421875 26.90625,-1.421875 q -4.59375,0 -9.359375,0.78125 -4.75,0.78125 -9.828125,2.34375 V 11.625 q 4.390625,-2.390625 9.078125,-3.5625 4.6875,-1.171875 9.90625,-1.171875 8.453125,0 13.375,4.4375 4.9375,4.4375 4.9375,12.0625 0,7.609375 -4.9375,12.046875 -4.921875,4.453125 -13.375,4.453125 -3.953125,0 -7.890625,-0.875 -3.921875,-0.875 -8.015625,-2.734375 z"
       id="DejaVuSans-53-9" />
    <path
       d="m 12.40625,8.296875 h 16.109375 v 55.625 L 10.984375,60.40625 v 8.984375 l 17.4375,3.515625 H 38.28125 V 8.296875 H 54.390625 V 0 H 12.40625 Z"
       id="DejaVuSans-49-1" />
    <path
       d="M 19.1875,8.296875 H 53.609375 V 0 H 7.328125 v 8.296875 q 5.609375,5.8125 15.296875,15.59375 9.703125,9.796875 12.1875,12.640625 4.734375,5.3125 6.609375,9 1.890625,3.6875 1.890625,7.25 0,5.8125 -4.078125,9.46875 -4.078125,3.671875 -10.625,3.671875 -4.640625,0 -9.796875,-1.609375 -5.140625,-1.609375 -11,-4.890625 v 9.96875 Q 13.765625,71.78125 18.9375,73 q 5.1875,1.21875 9.484375,1.21875 11.328125,0 18.0625,-5.671875 6.734375,-5.65625 6.734375,-15.125 0,-4.5 -1.6875,-8.53125 Q 49.859375,40.875 45.40625,35.40625 44.1875,33.984375 37.640625,27.21875 31.109375,20.453125 19.1875,8.296875 Z"
       id="DejaVuSans-50-2" />
    <path
       d="M 40.578125,39.3125 Q 47.65625,37.796875 51.625,33 q 3.984375,-4.78125 3.984375,-11.8125 0,-10.78125 -7.421875,-16.703125 -7.421875,-5.90625 -21.09375,-5.90625 -4.578125,0 -9.4375,0.90625 -4.859375,0.90625 -10.03125,2.71875 v 9.515625 q 4.09375,-2.390625 8.96875,-3.609375 4.890625,-1.21875 10.21875,-1.21875 9.265625,0 14.125,3.65625 4.859375,3.65625 4.859375,10.640625 0,6.453125 -4.515625,10.078125 -4.515625,3.640625 -12.5625,3.640625 h -8.5 v 8.109375 h 8.890625 q 7.265625,0 11.125,2.90625 3.859375,2.90625 3.859375,8.375 0,5.609375 -3.984375,8.609375 -3.96875,3.015625 -11.390625,3.015625 -4.0625,0 -8.703125,-0.890625 Q 15.375,64.15625 9.8125,62.3125 v 8.78125 q 5.625,1.5625 10.53125,2.34375 4.90625,0.78125 9.25,0.78125 11.234375,0 17.765625,-5.109375 6.546875,-5.09375 6.546875,-13.78125 0,-6.0625 -3.46875,-10.234375 -3.46875,-4.171875 -9.859375,-5.78125 z"
       id="DejaVuSans-51-7" />
    <path
       d="M 37.796875,64.3125 12.890625,25.390625 h 24.90625 z m -2.59375,8.59375 h 12.40625 V 25.390625 h 10.40625 V 17.1875 H 47.609375 V 0 h -9.8125 V 17.1875 H 4.890625 v 9.515625 z"
       id="DejaVuSans-52-0" />
    <path
       d="m 9.8125,72.90625 h 9.859375 V 43.015625 h 35.84375 V 72.90625 H 65.375 V 0 H 55.515625 V 34.71875 H 19.671875 V 0 H 9.8125 Z"
       id="DejaVuSans-72-9" />
    <path
       d="M 9.421875,54.6875 H 18.40625 V 0 H 9.421875 Z m 0,21.296875 H 18.40625 V 64.59375 H 9.421875 Z"
       id="DejaVuSans-105-3" />
    <path
       d="m 45.40625,27.984375 q 0,9.765625 -4.03125,15.125 -4.015625,5.375 -11.296875,5.375 -7.21875,0 -11.25,-5.375 -4.03125,-5.359375 -4.03125,-15.125 0,-9.71875 4.03125,-15.09375 4.03125,-5.375 11.25,-5.375 7.28125,0 11.296875,5.375 4.03125,5.375 4.03125,15.09375 z M 54.390625,6.78125 q 0,-13.953125 -6.203125,-20.765625 -6.1875,-6.8125 -18.984375,-6.8125 -4.734375,0 -8.9375,0.703125 -4.203125,0.703125 -8.15625,2.171875 V -9.1875 q 3.953125,-2.140625 7.8125,-3.15625 3.859375,-1.03125 7.859375,-1.03125 8.84375,0 13.234375,4.609375 4.390625,4.609375 4.390625,13.9375 V 9.625 Q 42.625,4.78125 38.28125,2.390625 33.9375,0 27.875,0 17.828125,0 11.671875,7.65625 q -6.15625,7.671875 -6.15625,20.328125 0,12.6875 6.15625,20.34375 Q 17.828125,56 27.875,56 q 6.0625,0 10.40625,-2.390625 4.34375,-2.390625 7.125,-7.21875 V 54.6875 h 8.984375 z"
       id="DejaVuSans-103-6" />
    <path
       d="M 54.890625,33.015625 V 0 H 45.90625 v 32.71875 q 0,7.765625 -3.03125,11.609375 -3.03125,3.859375 -9.078125,3.859375 -7.28125,0 -11.484375,-4.640625 -4.203125,-4.625 -4.203125,-12.640625 V 0 h -9.03125 v 75.984375 h 9.03125 V 46.1875 q 3.234375,4.9375 7.59375,7.375 4.375,2.4375 10.09375,2.4375 9.421875,0 14.25,-5.828125 4.84375,-5.828125 4.84375,-17.15625 z"
       id="DejaVuSans-104-0" />
    <path
       d="M 4.203125,54.6875 H 13.1875 L 24.421875,12.015625 35.59375,54.6875 H 46.1875 L 57.421875,12.015625 68.609375,54.6875 H 77.59375 L 63.28125,0 H 52.6875 L 40.921875,44.828125 29.109375,0 H 18.5 Z"
       id="DejaVuSans-119-6" />
    <path
       d="m 34.28125,27.484375 q -10.890625,0 -15.09375,-2.484375 -4.203125,-2.484375 -4.203125,-8.5 0,-4.78125 3.15625,-7.59375 3.15625,-2.796875 8.5625,-2.796875 7.484375,0 12,5.296875 4.515625,5.296875 4.515625,14.078125 v 2 z m 17.921875,3.71875 V 0 H 43.21875 v 8.296875 q -3.078125,-4.96875 -7.671875,-7.34375 -4.59375,-2.375 -11.234375,-2.375 -8.390625,0 -13.359375,4.71875 Q 6,8.015625 6,15.921875 q 0,9.21875 6.171875,13.90625 6.1875,4.6875 18.4375,4.6875 H 43.21875 v 0.890625 q 0,6.203125 -4.078125,9.59375 -4.078125,3.390625 -11.453125,3.390625 -4.6875,0 -9.140625,-1.125 -4.4375,-1.125 -8.53125,-3.375 v 8.3125 q 4.921875,1.90625 9.5625,2.84375 Q 24.21875,56 28.609375,56 q 11.875,0 17.734375,-6.15625 5.859375,-6.140625 5.859375,-18.640625 z"
       id="DejaVuSans-97-2" />
    <path
       d="M 32.171875,-5.078125 Q 28.375,-14.84375 24.75,-17.8125 q -3.609375,-2.984375 -9.65625,-2.984375 h -7.1875 v 7.515625 h 5.28125 q 3.703125,0 5.75,1.765625 2.0625,1.75 4.546875,8.296875 L 25.09375,0.875 2.984375,54.6875 H 12.5 L 29.59375,11.921875 46.6875,54.6875 h 9.515625 z"
       id="DejaVuSans-121-6" />
    <path
       d="m 4.890625,31.390625 h 26.3125 v -8 h -26.3125 z"
       id="DejaVuSans-45-1" />
    <path
       d="M 9.8125,72.90625 H 24.515625 L 43.109375,23.296875 61.8125,72.90625 H 76.515625 V 0 h -9.625 v 64.015625 l -18.796875,-50 H 38.1875 l -18.796875,50 V 0 H 9.8125 Z"
       id="DejaVuSans-77-8" />
    <path
       d="M 19.671875,64.796875 V 37.40625 h 12.40625 q 6.890625,0 10.640625,3.5625 3.765625,3.5625 3.765625,10.15625 0,6.546875 -3.765625,10.109375 -3.75,3.5625 -10.640625,3.5625 z M 9.8125,72.90625 h 22.265625 q 12.265625,0 18.53125,-5.546875 6.28125,-5.546875 6.28125,-16.234375 0,-10.796875 -6.28125,-16.3125 -6.265625,-5.515625 -18.53125,-5.515625 H 19.671875 V 0 H 9.8125 Z"
       id="DejaVuSans-80-7" />
    <path
       d="M 59.515625,10.40625 V 29.984375 H 43.40625 v 8.109375 h 25.875 V 6.78125 Q 63.578125,2.734375 56.6875,0.65625 49.8125,-1.421875 42,-1.421875 q -17.09375,0 -26.75,9.984375 -9.640625,10 -9.640625,27.8125 0,17.875 9.640625,27.859375 9.65625,9.984375 26.75,9.984375 7.125,0 13.546875,-1.765625 6.421875,-1.75 11.84375,-5.171875 v -10.5 q -5.46875,4.640625 -11.625,6.984375 -6.15625,2.34375 -12.9375,2.34375 -13.390625,0 -20.109375,-7.46875 -6.703125,-7.46875 -6.703125,-22.265625 0,-14.75 6.703125,-22.21875 6.71875,-7.46875 20.109375,-7.46875 5.21875,0 9.3125,0.90625 4.109375,0.90625 7.375,2.8125 z"
       id="DejaVuSans-71-9" />
    <path
       d="M 0,0 H -3.5"
       id="me2b02cb958-2"
       style="stroke:#000000;stroke-width:0.8" />
    <path
       d="m 44.390625,34.1875 q 3.171875,-1.078125 6.171875,-4.59375 3,-3.515625 6.03125,-9.671875 L 66.609375,0 H 56 l -9.3125,18.703125 q -3.625,7.328125 -7.015625,9.71875 -3.390625,2.390625 -9.25,2.390625 h -10.75 V 0 H 9.8125 v 72.90625 h 22.265625 q 12.5,0 18.65625,-5.234375 6.15625,-5.21875 6.15625,-15.765625 0,-6.890625 -3.203125,-11.4375 -3.203125,-4.53125 -9.296875,-6.28125 z m -24.71875,30.609375 v -25.875 h 12.40625 q 7.125,0 10.765625,3.296875 3.640625,3.296875 3.640625,9.6875 0,6.390625 -3.640625,9.640625 -3.640625,3.25 -10.765625,3.25 z"
       id="DejaVuSans-82-0" />
    <path
       d="m 9.8125,72.90625 h 9.859375 V 0 H 9.8125 Z"
       id="DejaVuSans-73-2" />
    <path
       d="M 64.40625,67.28125 V 56.890625 q -4.984375,4.640625 -10.625,6.921875 -5.640625,2.296875 -11.984375,2.296875 -12.5,0 -19.140625,-7.640625 -6.640625,-7.640625 -6.640625,-22.09375 0,-14.40625 6.640625,-22.046875 Q 29.296875,6.6875 41.796875,6.6875 q 6.34375,0 11.984375,2.296875 5.640625,2.296875 10.625,6.9375 V 5.609375 Q 59.234375,2.09375 53.4375,0.328125 q -5.78125,-1.75 -12.21875,-1.75 -16.5625,0 -26.09375,10.125 Q 5.609375,18.84375 5.609375,36.375 q 0,17.578125 9.515625,27.703125 9.53125,10.140625 26.09375,10.140625 6.53125,0 12.3125,-1.734375 5.796875,-1.734375 10.875,-5.203125 z"
       id="DejaVuSans-67-3" />
    <path
       d="m 9.8125,72.90625 h 46.09375 v -8.3125 H 19.671875 V 43.015625 h 34.71875 V 34.71875 H 19.671875 V 8.296875 H 56.78125 V 0 H 9.8125 Z"
       id="DejaVuSans-69-7" />
    <clipPath
       id="p5bff75efea-5">
      <rect
         height="289.39679"
         width="372.74399"
         x="60.119999"
         y="45.1008"
         id="rect383-9" />
    </clipPath>
    <path
       d="M 0,0 V 3.5"
       id="path424-7"
       style="stroke:#000000;stroke-width:0.8" />
    <path
       d="m 31.78125,66.40625 q -7.609375,0 -11.453125,-7.5 Q 16.5,51.421875 16.5,36.375 q 0,-14.984375 3.828125,-22.484375 3.84375,-7.5 11.453125,-7.5 7.671875,0 11.5,7.5 3.84375,7.5 3.84375,22.484375 0,15.046875 -3.84375,22.53125 -3.828125,7.5 -11.5,7.5 z m 0,7.8125 q 12.265625,0 18.734375,-9.703125 6.46875,-9.6875 6.46875,-28.140625 0,-18.40625 -6.46875,-28.109375 -6.46875,-9.6875 -18.734375,-9.6875 -12.25,0 -18.71875,9.6875 Q 6.59375,17.96875 6.59375,36.375 q 0,18.453125 6.46875,28.140625 6.46875,9.703125 18.71875,9.703125 z"
       id="path430-3" />
    <path
       d="m 10.796875,72.90625 h 38.71875 v -8.3125 h -29.6875 V 46.734375 q 2.140625,0.734375 4.28125,1.09375 2.15625,0.359375 4.3125,0.359375 Q 40.625,48.1875 47.75,41.5 54.890625,34.8125 54.890625,23.390625 54.890625,11.625 47.5625,5.09375 40.234375,-1.421875 26.90625,-1.421875 q -4.59375,0 -9.359375,0.78125 -4.75,0.78125 -9.828125,2.34375 V 11.625 q 4.390625,-2.390625 9.078125,-3.5625 4.6875,-1.171875 9.90625,-1.171875 8.453125,0 13.375,4.4375 4.9375,4.4375 4.9375,12.0625 0,7.609375 -4.9375,12.046875 -4.921875,4.453125 -13.375,4.453125 -3.953125,0 -7.890625,-0.875 -3.921875,-0.875 -8.015625,-2.734375 z"
       id="path440-1" />
    <path
       d="m 12.40625,8.296875 h 16.109375 v 55.625 L 10.984375,60.40625 v 8.984375 l 17.4375,3.515625 H 38.28125 V 8.296875 H 54.390625 V 0 H 12.40625 Z"
       id="path450-3" />
    <path
       d="M 19.1875,8.296875 H 53.609375 V 0 H 7.328125 v 8.296875 q 5.609375,5.8125 15.296875,15.59375 9.703125,9.796875 12.1875,12.640625 4.734375,5.3125 6.609375,9 1.890625,3.6875 1.890625,7.25 0,5.8125 -4.078125,9.46875 -4.078125,3.671875 -10.625,3.671875 -4.640625,0 -9.796875,-1.609375 -5.140625,-1.609375 -11,-4.890625 v 9.96875 Q 13.765625,71.78125 18.9375,73 q 5.1875,1.21875 9.484375,1.21875 11.328125,0 18.0625,-5.671875 6.734375,-5.65625 6.734375,-15.125 0,-4.5 -1.6875,-8.53125 Q 49.859375,40.875 45.40625,35.40625 44.1875,33.984375 37.640625,27.21875 31.109375,20.453125 19.1875,8.296875 Z"
       id="path469-3" />
    <path
       d="M 40.578125,39.3125 Q 47.65625,37.796875 51.625,33 q 3.984375,-4.78125 3.984375,-11.8125 0,-10.78125 -7.421875,-16.703125 -7.421875,-5.90625 -21.09375,-5.90625 -4.578125,0 -9.4375,0.90625 -4.859375,0.90625 -10.03125,2.71875 v 9.515625 q 4.09375,-2.390625 8.96875,-3.609375 4.890625,-1.21875 10.21875,-1.21875 9.265625,0 14.125,3.65625 4.859375,3.65625 4.859375,10.640625 0,6.453125 -4.515625,10.078125 -4.515625,3.640625 -12.5625,3.640625 h -8.5 v 8.109375 h 8.890625 q 7.265625,0 11.125,2.90625 3.859375,2.90625 3.859375,8.375 0,5.609375 -3.984375,8.609375 -3.96875,3.015625 -11.390625,3.015625 -4.0625,0 -8.703125,-0.890625 Q 15.375,64.15625 9.8125,62.3125 v 8.78125 q 5.625,1.5625 10.53125,2.34375 4.90625,0.78125 9.25,0.78125 11.234375,0 17.765625,-5.109375 6.546875,-5.09375 6.546875,-13.78125 0,-6.0625 -3.46875,-10.234375 -3.46875,-4.171875 -9.859375,-5.78125 z"
       id="path488-7" />
    <path
       d="M 37.796875,64.3125 12.890625,25.390625 h 24.90625 z m -2.59375,8.59375 h 12.40625 V 25.390625 h 10.40625 V 17.1875 H 47.609375 V 0 h -9.8125 V 17.1875 H 4.890625 v 9.515625 z"
       id="path507-1" />
    <path
       d="m 9.8125,72.90625 h 9.859375 V 43.015625 h 35.84375 V 72.90625 H 65.375 V 0 H 55.515625 V 34.71875 H 19.671875 V 0 H 9.8125 Z"
       id="path515-9" />
    <path
       d="M 9.421875,54.6875 H 18.40625 V 0 H 9.421875 Z m 0,21.296875 H 18.40625 V 64.59375 H 9.421875 Z"
       id="path517-7" />
    <path
       d="m 45.40625,27.984375 q 0,9.765625 -4.03125,15.125 -4.015625,5.375 -11.296875,5.375 -7.21875,0 -11.25,-5.375 -4.03125,-5.359375 -4.03125,-15.125 0,-9.71875 4.03125,-15.09375 4.03125,-5.375 11.25,-5.375 7.28125,0 11.296875,5.375 4.03125,5.375 4.03125,15.09375 z M 54.390625,6.78125 q 0,-13.953125 -6.203125,-20.765625 -6.1875,-6.8125 -18.984375,-6.8125 -4.734375,0 -8.9375,0.703125 -4.203125,0.703125 -8.15625,2.171875 V -9.1875 q 3.953125,-2.140625 7.8125,-3.15625 3.859375,-1.03125 7.859375,-1.03125 8.84375,0 13.234375,4.609375 4.390625,4.609375 4.390625,13.9375 V 9.625 Q 42.625,4.78125 38.28125,2.390625 33.9375,0 27.875,0 17.828125,0 11.671875,7.65625 q -6.15625,7.671875 -6.15625,20.328125 0,12.6875 6.15625,20.34375 Q 17.828125,56 27.875,56 q 6.0625,0 10.40625,-2.390625 4.34375,-2.390625 7.125,-7.21875 V 54.6875 h 8.984375 z"
       id="path519-7" />
    <path
       d="M 54.890625,33.015625 V 0 H 45.90625 v 32.71875 q 0,7.765625 -3.03125,11.609375 -3.03125,3.859375 -9.078125,3.859375 -7.28125,0 -11.484375,-4.640625 -4.203125,-4.625 -4.203125,-12.640625 V 0 h -9.03125 v 75.984375 h 9.03125 V 46.1875 q 3.234375,4.9375 7.59375,7.375 4.375,2.4375 10.09375,2.4375 9.421875,0 14.25,-5.828125 4.84375,-5.828125 4.84375,-17.15625 z"
       id="path521-6" />
    <path
       d="M 4.203125,54.6875 H 13.1875 L 24.421875,12.015625 35.59375,54.6875 H 46.1875 L 57.421875,12.015625 68.609375,54.6875 H 77.59375 L 63.28125,0 H 52.6875 L 40.921875,44.828125 29.109375,0 H 18.5 Z"
       id="path523-7" />
    <path
       d="m 34.28125,27.484375 q -10.890625,0 -15.09375,-2.484375 -4.203125,-2.484375 -4.203125,-8.5 0,-4.78125 3.15625,-7.59375 3.15625,-2.796875 8.5625,-2.796875 7.484375,0 12,5.296875 4.515625,5.296875 4.515625,14.078125 v 2 z m 17.921875,3.71875 V 0 H 43.21875 v 8.296875 q -3.078125,-4.96875 -7.671875,-7.34375 -4.59375,-2.375 -11.234375,-2.375 -8.390625,0 -13.359375,4.71875 Q 6,8.015625 6,15.921875 q 0,9.21875 6.171875,13.90625 6.1875,4.6875 18.4375,4.6875 H 43.21875 v 0.890625 q 0,6.203125 -4.078125,9.59375 -4.078125,3.390625 -11.453125,3.390625 -4.6875,0 -9.140625,-1.125 -4.4375,-1.125 -8.53125,-3.375 v 8.3125 q 4.921875,1.90625 9.5625,2.84375 Q 24.21875,56 28.609375,56 q 11.875,0 17.734375,-6.15625 5.859375,-6.140625 5.859375,-18.640625 z"
       id="path525-3" />
    <path
       d="M 32.171875,-5.078125 Q 28.375,-14.84375 24.75,-17.8125 q -3.609375,-2.984375 -9.65625,-2.984375 h -7.1875 v 7.515625 h 5.28125 q 3.703125,0 5.75,1.765625 2.0625,1.75 4.546875,8.296875 L 25.09375,0.875 2.984375,54.6875 H 12.5 L 29.59375,11.921875 46.6875,54.6875 h 9.515625 z"
       id="path527-6" />
    <path
       d="m 4.890625,31.390625 h 26.3125 v -8 h -26.3125 z"
       id="path529-5" />
    <path
       d="M 9.8125,72.90625 H 24.515625 L 43.109375,23.296875 61.8125,72.90625 H 76.515625 V 0 h -9.625 v 64.015625 l -18.796875,-50 H 38.1875 l -18.796875,50 V 0 H 9.8125 Z"
       id="path531-6" />
    <path
       d="M 19.671875,64.796875 V 37.40625 h 12.40625 q 6.890625,0 10.640625,3.5625 3.765625,3.5625 3.765625,10.15625 0,6.546875 -3.765625,10.109375 -3.75,3.5625 -10.640625,3.5625 z M 9.8125,72.90625 h 22.265625 q 12.265625,0 18.53125,-5.546875 6.28125,-5.546875 6.28125,-16.234375 0,-10.796875 -6.28125,-16.3125 -6.265625,-5.515625 -18.53125,-5.515625 H 19.671875 V 0 H 9.8125 Z"
       id="path533-3" />
    <path
       d="M 59.515625,10.40625 V 29.984375 H 43.40625 v 8.109375 h 25.875 V 6.78125 Q 63.578125,2.734375 56.6875,0.65625 49.8125,-1.421875 42,-1.421875 q -17.09375,0 -26.75,9.984375 -9.640625,10 -9.640625,27.8125 0,17.875 9.640625,27.859375 9.65625,9.984375 26.75,9.984375 7.125,0 13.546875,-1.765625 6.421875,-1.75 11.84375,-5.171875 v -10.5 q -5.46875,4.640625 -11.625,6.984375 -6.15625,2.34375 -12.9375,2.34375 -13.390625,0 -20.109375,-7.46875 -6.703125,-7.46875 -6.703125,-22.265625 0,-14.75 6.703125,-22.21875 6.71875,-7.46875 20.109375,-7.46875 5.21875,0 9.3125,0.90625 4.109375,0.90625 7.375,2.8125 z"
       id="path535-9" />
    <path
       d="M 0,0 H -3.5"
       id="path552-5"
       style="stroke:#000000;stroke-width:0.8" />
    <path
       d="m 44.390625,34.1875 q 3.171875,-1.078125 6.171875,-4.59375 3,-3.515625 6.03125,-9.671875 L 66.609375,0 H 56 l -9.3125,18.703125 q -3.625,7.328125 -7.015625,9.71875 -3.390625,2.390625 -9.25,2.390625 h -10.75 V 0 H 9.8125 v 72.90625 h 22.265625 q 12.5,0 18.65625,-5.234375 6.15625,-5.21875 6.15625,-15.765625 0,-6.890625 -3.203125,-11.4375 -3.203125,-4.53125 -9.296875,-6.28125 z m -24.71875,30.609375 v -25.875 h 12.40625 q 7.125,0 10.765625,3.296875 3.640625,3.296875 3.640625,9.6875 0,6.390625 -3.640625,9.640625 -3.640625,3.25 -10.765625,3.25 z"
       id="path642-3" />
    <path
       d="m 9.8125,72.90625 h 9.859375 V 0 H 9.8125 Z"
       id="path644-6" />
    <path
       d="M 64.40625,67.28125 V 56.890625 q -4.984375,4.640625 -10.625,6.921875 -5.640625,2.296875 -11.984375,2.296875 -12.5,0 -19.140625,-7.640625 -6.640625,-7.640625 -6.640625,-22.09375 0,-14.40625 6.640625,-22.046875 Q 29.296875,6.6875 41.796875,6.6875 q 6.34375,0 11.984375,2.296875 5.640625,2.296875 10.625,6.9375 V 5.609375 Q 59.234375,2.09375 53.4375,0.328125 q -5.78125,-1.75 -12.21875,-1.75 -16.5625,0 -26.09375,10.125 Q 5.609375,18.84375 5.609375,36.375 q 0,17.578125 9.515625,27.703125 9.53125,10.140625 26.09375,10.140625 6.53125,0 12.3125,-1.734375 5.796875,-1.734375 10.875,-5.203125 z"
       id="path646-8" />
    <path
       d="m 9.8125,72.90625 h 46.09375 v -8.3125 H 19.671875 V 43.015625 h 34.71875 V 34.71875 H 19.671875 V 8.296875 H 56.78125 V 0 H 9.8125 Z"
       id="path648-0" />
  </defs>
  <sodipodi:namedview
     inkscape:window-maximized="1"
     inkscape:window-y="27"
     inkscape:window-x="67"
     inkscape:window-height="1025"
     inkscape:window-width="1853"
     showgrid="false"
     inkscape:document-rotation="0"
     inkscape:current-layer="layer1"
     inkscape:document-units="mm"
     inkscape:cy="58.954429"
     inkscape:cx="678.84825"
     inkscape:zoom="0.70710678"
     inkscape:pageshadow="2"
     inkscape:pageopacity="0.0"
     borderopacity="1.0"
     bordercolor="#666666"
     pagecolor="#ffffff"
     id="base" />
  <metadata
     id="metadata5">
    <rdf:RDF>
      <cc:Work
         rdf:about="">
        <dc:format>image/svg+xml</dc:format>
        <dc:type
           rdf:resource="http://purl.org/dc/dcmitype/StillImage" />
        <dc:title></dc:title>
      </cc:Work>
    </rdf:RDF>
  </metadata>
  <g
     id="layer1"
     inkscape:groupmode="layer"
     inkscape:label="Layer 1">
    <g
       transform="scale(0.25679562,0.26815944)"
       id="g671"
       style="stroke-linecap:butt;stroke-linejoin:round">
      <g
         id="figure_1">
        <g
           id="patch_1">
          <path
             d="M 0,375.84 H 480.96 V 0 H 0 Z"
             style="fill:#ffffff"
             id="path14" />
        </g>
        <g
           id="axes_1">
          <g
             id="patch_2">
            <path
               d="M 60.12,334.4976 H 432.864 V 45.1008 H 60.12 Z"
               style="fill:#ffffff"
               id="path17" />
          </g>
          <g
             id="matplotlib.axis_1">
            <g
               id="xtick_1">
              <g
                 id="line2d_1">
                <defs
                   id="defs21">
                  <path
                     d="M 0,0 V 3.5"
                     id="path424"
                     style="stroke:#000000;stroke-width:0.8" />
                </defs>
                <g
                   id="g25">
                  <use
                     height="100%"
                     width="100%"
                     style="stroke:#000000;stroke-width:0.8"
                     x="77.062912"
                     xlink:href="#mf2c09c39dd"
                     y="334.49759"
                     id="use23" />
                </g>
              </g>
              <g
                 id="text_1">
                <!-- 0 -->
                <defs
                   id="defs29">
                  <path
                     d="m 31.78125,66.40625 q -7.609375,0 -11.453125,-7.5 Q 16.5,51.421875 16.5,36.375 q 0,-14.984375 3.828125,-22.484375 3.84375,-7.5 11.453125,-7.5 7.671875,0 11.5,7.5 3.84375,7.5 3.84375,22.484375 0,15.046875 -3.84375,22.53125 -3.828125,7.5 -11.5,7.5 z m 0,7.8125 q 12.265625,0 18.734375,-9.703125 6.46875,-9.6875 6.46875,-28.140625 0,-18.40625 -6.46875,-28.109375 -6.46875,-9.6875 -18.734375,-9.6875 -12.25,0 -18.71875,9.6875 Q 6.59375,17.96875 6.59375,36.375 q 0,18.453125 6.46875,28.140625 6.46875,9.703125 18.71875,9.703125 z"
                     id="path430" />
                </defs>
                <g
                   transform="matrix(0.1,0,0,-0.1,73.881659,349.09604)"
                   id="g33">
                  <use
                     height="100%"
                     width="100%"
                     y="0"
                     x="0"
                     xlink:href="#DejaVuSans-48"
                     id="use31" />
                </g>
              </g>
            </g>
            <g
               id="xtick_2">
              <g
                 id="line2d_2">
                <g
                   id="g39">
                  <use
                     height="100%"
                     width="100%"
                     style="stroke:#000000;stroke-width:0.8"
                     x="119.42018"
                     xlink:href="#mf2c09c39dd"
                     y="334.49759"
                     id="use37" />
                </g>
              </g>
              <g
                 id="text_2">
                <!-- 5 -->
                <defs
                   id="defs43">
                  <path
                     d="m 10.796875,72.90625 h 38.71875 v -8.3125 h -29.6875 V 46.734375 q 2.140625,0.734375 4.28125,1.09375 2.15625,0.359375 4.3125,0.359375 Q 40.625,48.1875 47.75,41.5 54.890625,34.8125 54.890625,23.390625 54.890625,11.625 47.5625,5.09375 40.234375,-1.421875 26.90625,-1.421875 q -4.59375,0 -9.359375,0.78125 -4.75,0.78125 -9.828125,2.34375 V 11.625 q 4.390625,-2.390625 9.078125,-3.5625 4.6875,-1.171875 9.90625,-1.171875 8.453125,0 13.375,4.4375 4.9375,4.4375 4.9375,12.0625 0,7.609375 -4.9375,12.046875 -4.921875,4.453125 -13.375,4.453125 -3.953125,0 -7.890625,-0.875 -3.921875,-0.875 -8.015625,-2.734375 z"
                     id="path440" />
                </defs>
                <g
                   transform="matrix(0.1,0,0,-0.1,116.23893,349.09604)"
                   id="g47">
                  <use
                     height="100%"
                     width="100%"
                     y="0"
                     x="0"
                     xlink:href="#DejaVuSans-53"
                     id="use45" />
                </g>
              </g>
            </g>
            <g
               id="xtick_3">
              <g
                 id="line2d_3">
                <g
                   id="g53">
                  <use
                     height="100%"
                     width="100%"
                     style="stroke:#000000;stroke-width:0.8"
                     x="161.77745"
                     xlink:href="#mf2c09c39dd"
                     y="334.49759"
                     id="use51" />
                </g>
              </g>
              <g
                 id="text_3">
                <!-- 10 -->
                <defs
                   id="defs57">
                  <path
                     d="m 12.40625,8.296875 h 16.109375 v 55.625 L 10.984375,60.40625 v 8.984375 l 17.4375,3.515625 H 38.28125 V 8.296875 H 54.390625 V 0 H 12.40625 Z"
                     id="path450" />
                </defs>
                <g
                   transform="matrix(0.1,0,0,-0.1,155.41495,349.09604)"
                   id="g63">
                  <use
                     height="100%"
                     width="100%"
                     y="0"
                     x="0"
                     xlink:href="#DejaVuSans-49"
                     id="use59" />
                  <use
                     height="100%"
                     width="100%"
                     y="0"
                     x="63.623047"
                     xlink:href="#DejaVuSans-48"
                     id="use61" />
                </g>
              </g>
            </g>
            <g
               id="xtick_4">
              <g
                 id="line2d_4">
                <g
                   id="g69">
                  <use
                     height="100%"
                     width="100%"
                     style="stroke:#000000;stroke-width:0.8"
                     x="204.13472"
                     xlink:href="#mf2c09c39dd"
                     y="334.49759"
                     id="use67" />
                </g>
              </g>
              <g
                 id="text_4">
                <!-- 15 -->
                <g
                   transform="matrix(0.1,0,0,-0.1,197.77223,349.09604)"
                   id="g76">
                  <use
                     height="100%"
                     width="100%"
                     y="0"
                     x="0"
                     xlink:href="#DejaVuSans-49"
                     id="use72" />
                  <use
                     height="100%"
                     width="100%"
                     y="0"
                     x="63.623047"
                     xlink:href="#DejaVuSans-53"
                     id="use74" />
                </g>
              </g>
            </g>
            <g
               id="xtick_5">
              <g
                 id="line2d_5">
                <g
                   id="g82">
                  <use
                     height="100%"
                     width="100%"
                     style="stroke:#000000;stroke-width:0.8"
                     x="246.492"
                     xlink:href="#mf2c09c39dd"
                     y="334.49759"
                     id="use80" />
                </g>
              </g>
              <g
                 id="text_5">
                <!-- 20 -->
                <defs
                   id="defs86">
                  <path
                     d="M 19.1875,8.296875 H 53.609375 V 0 H 7.328125 v 8.296875 q 5.609375,5.8125 15.296875,15.59375 9.703125,9.796875 12.1875,12.640625 4.734375,5.3125 6.609375,9 1.890625,3.6875 1.890625,7.25 0,5.8125 -4.078125,9.46875 -4.078125,3.671875 -10.625,3.671875 -4.640625,0 -9.796875,-1.609375 -5.140625,-1.609375 -11,-4.890625 v 9.96875 Q 13.765625,71.78125 18.9375,73 q 5.1875,1.21875 9.484375,1.21875 11.328125,0 18.0625,-5.671875 6.734375,-5.65625 6.734375,-15.125 0,-4.5 -1.6875,-8.53125 Q 49.859375,40.875 45.40625,35.40625 44.1875,33.984375 37.640625,27.21875 31.109375,20.453125 19.1875,8.296875 Z"
                     id="path469" />
                </defs>
                <g
                   transform="matrix(0.1,0,0,-0.1,240.1295,349.09604)"
                   id="g92">
                  <use
                     height="100%"
                     width="100%"
                     y="0"
                     x="0"
                     xlink:href="#DejaVuSans-50"
                     id="use88" />
                  <use
                     height="100%"
                     width="100%"
                     y="0"
                     x="63.623047"
                     xlink:href="#DejaVuSans-48"
                     id="use90" />
                </g>
              </g>
            </g>
            <g
               id="xtick_6">
              <g
                 id="line2d_6">
                <g
                   id="g98">
                  <use
                     height="100%"
                     width="100%"
                     style="stroke:#000000;stroke-width:0.8"
                     x="288.84927"
                     xlink:href="#mf2c09c39dd"
                     y="334.49759"
                     id="use96" />
                </g>
              </g>
              <g
                 id="text_6">
                <!-- 25 -->
                <g
                   transform="matrix(0.1,0,0,-0.1,282.48677,349.09604)"
                   id="g105">
                  <use
                     height="100%"
                     width="100%"
                     y="0"
                     x="0"
                     xlink:href="#DejaVuSans-50"
                     id="use101" />
                  <use
                     height="100%"
                     width="100%"
                     y="0"
                     x="63.623047"
                     xlink:href="#DejaVuSans-53"
                     id="use103" />
                </g>
              </g>
            </g>
            <g
               id="xtick_7">
              <g
                 id="line2d_7">
                <g
                   id="g111">
                  <use
                     height="100%"
                     width="100%"
                     style="stroke:#000000;stroke-width:0.8"
                     x="331.20654"
                     xlink:href="#mf2c09c39dd"
                     y="334.49759"
                     id="use109" />
                </g>
              </g>
              <g
                 id="text_7">
                <!-- 30 -->
                <defs
                   id="defs115">
                  <path
                     d="M 40.578125,39.3125 Q 47.65625,37.796875 51.625,33 q 3.984375,-4.78125 3.984375,-11.8125 0,-10.78125 -7.421875,-16.703125 -7.421875,-5.90625 -21.09375,-5.90625 -4.578125,0 -9.4375,0.90625 -4.859375,0.90625 -10.03125,2.71875 v 9.515625 q 4.09375,-2.390625 8.96875,-3.609375 4.890625,-1.21875 10.21875,-1.21875 9.265625,0 14.125,3.65625 4.859375,3.65625 4.859375,10.640625 0,6.453125 -4.515625,10.078125 -4.515625,3.640625 -12.5625,3.640625 h -8.5 v 8.109375 h 8.890625 q 7.265625,0 11.125,2.90625 3.859375,2.90625 3.859375,8.375 0,5.609375 -3.984375,8.609375 -3.96875,3.015625 -11.390625,3.015625 -4.0625,0 -8.703125,-0.890625 Q 15.375,64.15625 9.8125,62.3125 v 8.78125 q 5.625,1.5625 10.53125,2.34375 4.90625,0.78125 9.25,0.78125 11.234375,0 17.765625,-5.109375 6.546875,-5.09375 6.546875,-13.78125 0,-6.0625 -3.46875,-10.234375 -3.46875,-4.171875 -9.859375,-5.78125 z"
                     id="path488" />
                </defs>
                <g
                   transform="matrix(0.1,0,0,-0.1,324.84404,349.09604)"
                   id="g121">
                  <use
                     height="100%"
                     width="100%"
                     y="0"
                     x="0"
                     xlink:href="#DejaVuSans-51"
                     id="use117" />
                  <use
                     height="100%"
                     width="100%"
                     y="0"
                     x="63.623047"
                     xlink:href="#DejaVuSans-48"
                     id="use119" />
                </g>
              </g>
            </g>
            <g
               id="xtick_8">
              <g
                 id="line2d_8">
                <g
                   id="g127">
                  <use
                     height="100%"
                     width="100%"
                     style="stroke:#000000;stroke-width:0.8"
                     x="373.56381"
                     xlink:href="#mf2c09c39dd"
                     y="334.49759"
                     id="use125" />
                </g>
              </g>
              <g
                 id="text_8">
                <!-- 35 -->
                <g
                   transform="matrix(0.1,0,0,-0.1,367.20132,349.09604)"
                   id="g134">
                  <use
                     height="100%"
                     width="100%"
                     y="0"
                     x="0"
                     xlink:href="#DejaVuSans-51"
                     id="use130" />
                  <use
                     height="100%"
                     width="100%"
                     y="0"
                     x="63.623047"
                     xlink:href="#DejaVuSans-53"
                     id="use132" />
                </g>
              </g>
            </g>
            <g
               id="xtick_9">
              <g
                 id="line2d_9">
                <g
                   id="g140">
                  <use
                     height="100%"
                     width="100%"
                     style="stroke:#000000;stroke-width:0.8"
                     x="415.92108"
                     xlink:href="#mf2c09c39dd"
                     y="334.49759"
                     id="use138" />
                </g>
              </g>
              <g
                 id="text_9">
                <!-- 40 -->
                <defs
                   id="defs144">
                  <path
                     d="M 37.796875,64.3125 12.890625,25.390625 h 24.90625 z m -2.59375,8.59375 h 12.40625 V 25.390625 h 10.40625 V 17.1875 H 47.609375 V 0 h -9.8125 V 17.1875 H 4.890625 v 9.515625 z"
                     id="path507" />
                </defs>
                <g
                   transform="matrix(0.1,0,0,-0.1,409.55859,349.09604)"
                   id="g150">
                  <use
                     height="100%"
                     width="100%"
                     y="0"
                     x="0"
                     xlink:href="#DejaVuSans-52"
                     id="use146" />
                  <use
                     height="100%"
                     width="100%"
                     y="0"
                     x="63.623047"
                     xlink:href="#DejaVuSans-48"
                     id="use148" />
                </g>
              </g>
            </g>
            <g
               id="text_10">
              <!-- Highway-MPG -->
              <defs
                 id="defs165">
                <path
                   d="m 9.8125,72.90625 h 9.859375 V 43.015625 h 35.84375 V 72.90625 H 65.375 V 0 H 55.515625 V 34.71875 H 19.671875 V 0 H 9.8125 Z"
                   id="path515" />
                <path
                   d="M 9.421875,54.6875 H 18.40625 V 0 H 9.421875 Z m 0,21.296875 H 18.40625 V 64.59375 H 9.421875 Z"
                   id="path517" />
                <path
                   d="m 45.40625,27.984375 q 0,9.765625 -4.03125,15.125 -4.015625,5.375 -11.296875,5.375 -7.21875,0 -11.25,-5.375 -4.03125,-5.359375 -4.03125,-15.125 0,-9.71875 4.03125,-15.09375 4.03125,-5.375 11.25,-5.375 7.28125,0 11.296875,5.375 4.03125,5.375 4.03125,15.09375 z M 54.390625,6.78125 q 0,-13.953125 -6.203125,-20.765625 -6.1875,-6.8125 -18.984375,-6.8125 -4.734375,0 -8.9375,0.703125 -4.203125,0.703125 -8.15625,2.171875 V -9.1875 q 3.953125,-2.140625 7.8125,-3.15625 3.859375,-1.03125 7.859375,-1.03125 8.84375,0 13.234375,4.609375 4.390625,4.609375 4.390625,13.9375 V 9.625 Q 42.625,4.78125 38.28125,2.390625 33.9375,0 27.875,0 17.828125,0 11.671875,7.65625 q -6.15625,7.671875 -6.15625,20.328125 0,12.6875 6.15625,20.34375 Q 17.828125,56 27.875,56 q 6.0625,0 10.40625,-2.390625 4.34375,-2.390625 7.125,-7.21875 V 54.6875 h 8.984375 z"
                   id="path519" />
                <path
                   d="M 54.890625,33.015625 V 0 H 45.90625 v 32.71875 q 0,7.765625 -3.03125,11.609375 -3.03125,3.859375 -9.078125,3.859375 -7.28125,0 -11.484375,-4.640625 -4.203125,-4.625 -4.203125,-12.640625 V 0 h -9.03125 v 75.984375 h 9.03125 V 46.1875 q 3.234375,4.9375 7.59375,7.375 4.375,2.4375 10.09375,2.4375 9.421875,0 14.25,-5.828125 4.84375,-5.828125 4.84375,-17.15625 z"
                   id="path521" />
                <path
                   d="M 4.203125,54.6875 H 13.1875 L 24.421875,12.015625 35.59375,54.6875 H 46.1875 L 57.421875,12.015625 68.609375,54.6875 H 77.59375 L 63.28125,0 H 52.6875 L 40.921875,44.828125 29.109375,0 H 18.5 Z"
                   id="path523" />
                <path
                   d="m 34.28125,27.484375 q -10.890625,0 -15.09375,-2.484375 -4.203125,-2.484375 -4.203125,-8.5 0,-4.78125 3.15625,-7.59375 3.15625,-2.796875 8.5625,-2.796875 7.484375,0 12,5.296875 4.515625,5.296875 4.515625,14.078125 v 2 z m 17.921875,3.71875 V 0 H 43.21875 v 8.296875 q -3.078125,-4.96875 -7.671875,-7.34375 -4.59375,-2.375 -11.234375,-2.375 -8.390625,0 -13.359375,4.71875 Q 6,8.015625 6,15.921875 q 0,9.21875 6.171875,13.90625 6.1875,4.6875 18.4375,4.6875 H 43.21875 v 0.890625 q 0,6.203125 -4.078125,9.59375 -4.078125,3.390625 -11.453125,3.390625 -4.6875,0 -9.140625,-1.125 -4.4375,-1.125 -8.53125,-3.375 v 8.3125 q 4.921875,1.90625 9.5625,2.84375 Q 24.21875,56 28.609375,56 q 11.875,0 17.734375,-6.15625 5.859375,-6.140625 5.859375,-18.640625 z"
                   id="path525" />
                <path
                   d="M 32.171875,-5.078125 Q 28.375,-14.84375 24.75,-17.8125 q -3.609375,-2.984375 -9.65625,-2.984375 h -7.1875 v 7.515625 h 5.28125 q 3.703125,0 5.75,1.765625 2.0625,1.75 4.546875,8.296875 L 25.09375,0.875 2.984375,54.6875 H 12.5 L 29.59375,11.921875 46.6875,54.6875 h 9.515625 z"
                   id="path527" />
                <path
                   d="m 4.890625,31.390625 h 26.3125 v -8 h -26.3125 z"
                   id="path529" />
                <path
                   d="M 9.8125,72.90625 H 24.515625 L 43.109375,23.296875 61.8125,72.90625 H 76.515625 V 0 h -9.625 v 64.015625 l -18.796875,-50 H 38.1875 l -18.796875,50 V 0 H 9.8125 Z"
                   id="path531" />
                <path
                   d="M 19.671875,64.796875 V 37.40625 h 12.40625 q 6.890625,0 10.640625,3.5625 3.765625,3.5625 3.765625,10.15625 0,6.546875 -3.765625,10.109375 -3.75,3.5625 -10.640625,3.5625 z M 9.8125,72.90625 h 22.265625 q 12.265625,0 18.53125,-5.546875 6.28125,-5.546875 6.28125,-16.234375 0,-10.796875 -6.28125,-16.3125 -6.265625,-5.515625 -18.53125,-5.515625 H 19.671875 V 0 H 9.8125 Z"
                   id="path533" />
                <path
                   d="M 59.515625,10.40625 V 29.984375 H 43.40625 v 8.109375 h 25.875 V 6.78125 Q 63.578125,2.734375 56.6875,0.65625 49.8125,-1.421875 42,-1.421875 q -17.09375,0 -26.75,9.984375 -9.640625,10 -9.640625,27.8125 0,17.875 9.640625,27.859375 9.65625,9.984375 26.75,9.984375 7.125,0 13.546875,-1.765625 6.421875,-1.75 11.84375,-5.171875 v -10.5 q -5.46875,4.640625 -11.625,6.984375 -6.15625,2.34375 -12.9375,2.34375 -13.390625,0 -20.109375,-7.46875 -6.703125,-7.46875 -6.703125,-22.265625 0,-14.75 6.703125,-22.21875 6.71875,-7.46875 20.109375,-7.46875 5.21875,0 9.3125,0.90625 4.109375,0.90625 7.375,2.8125 z"
                   id="path535" />
              </defs>
              <g
                 transform="matrix(0.1,0,0,-0.1,211.96778,362.77416)"
                 id="g189">
                <use
                   height="100%"
                   width="100%"
                   y="0"
                   x="0"
                   xlink:href="#DejaVuSans-72"
                   id="use167" />
                <use
                   height="100%"
                   width="100%"
                   y="0"
                   x="75.195312"
                   xlink:href="#DejaVuSans-105"
                   id="use169" />
                <use
                   height="100%"
                   width="100%"
                   y="0"
                   x="102.97852"
                   xlink:href="#DejaVuSans-103"
                   id="use171" />
                <use
                   height="100%"
                   width="100%"
                   y="0"
                   x="166.45508"
                   xlink:href="#DejaVuSans-104"
                   id="use173" />
                <use
                   height="100%"
                   width="100%"
                   y="0"
                   x="229.83398"
                   xlink:href="#DejaVuSans-119"
                   id="use175" />
                <use
                   height="100%"
                   width="100%"
                   y="0"
                   x="311.62109"
                   xlink:href="#DejaVuSans-97"
                   id="use177" />
                <use
                   height="100%"
                   width="100%"
                   y="0"
                   x="372.90039"
                   xlink:href="#DejaVuSans-121"
                   id="use179" />
                <use
                   height="100%"
                   width="100%"
                   y="0"
                   x="430.33008"
                   xlink:href="#DejaVuSans-45"
                   id="use181" />
                <use
                   height="100%"
                   width="100%"
                   y="0"
                   x="466.41406"
                   xlink:href="#DejaVuSans-77"
                   id="use183" />
                <use
                   height="100%"
                   width="100%"
                   y="0"
                   x="552.69336"
                   xlink:href="#DejaVuSans-80"
                   id="use185" />
                <use
                   height="100%"
                   width="100%"
                   y="0"
                   x="612.99609"
                   xlink:href="#DejaVuSans-71"
                   id="use187" />
              </g>
            </g>
          </g>
          <g
             id="matplotlib.axis_2">
            <g
               id="ytick_1">
              <g
                 id="line2d_10">
                <defs
                   id="defs194">
                  <path
                     d="M 0,0 H -3.5"
                     id="path552"
                     style="stroke:#000000;stroke-width:0.8" />
                </defs>
                <g
                   id="g198">
                  <use
                     height="100%"
                     width="100%"
                     style="stroke:#000000;stroke-width:0.8"
                     x="60.119999"
                     xlink:href="#me2b02cb958"
                     y="325.77722"
                     id="use196" />
                </g>
              </g>
              <g
                 id="text_11">
                <!-- 5000 -->
                <g
                   transform="matrix(0.1,0,0,-0.1,27.67,329.57643)"
                   id="g209">
                  <use
                     height="100%"
                     width="100%"
                     y="0"
                     x="0"
                     xlink:href="#DejaVuSans-53"
                     id="use201" />
                  <use
                     height="100%"
                     width="100%"
                     y="0"
                     x="63.623047"
                     xlink:href="#DejaVuSans-48"
                     id="use203" />
                  <use
                     height="100%"
                     width="100%"
                     y="0"
                     x="127.24609"
                     xlink:href="#DejaVuSans-48"
                     id="use205" />
                  <use
                     height="100%"
                     width="100%"
                     y="0"
                     x="190.86914"
                     xlink:href="#DejaVuSans-48"
                     id="use207" />
                </g>
              </g>
            </g>
            <g
               id="ytick_2">
              <g
                 id="line2d_11">
                <g
                   id="g215">
                  <use
                     height="100%"
                     width="100%"
                     style="stroke:#000000;stroke-width:0.8"
                     x="60.119999"
                     xlink:href="#me2b02cb958"
                     y="285.75693"
                     id="use213" />
                </g>
              </g>
              <g
                 id="text_12">
                <!-- 10000 -->
                <g
                   transform="matrix(0.1,0,0,-0.1,21.3075,289.55615)"
                   id="g228">
                  <use
                     height="100%"
                     width="100%"
                     y="0"
                     x="0"
                     xlink:href="#DejaVuSans-49"
                     id="use218" />
                  <use
                     height="100%"
                     width="100%"
                     y="0"
                     x="63.623047"
                     xlink:href="#DejaVuSans-48"
                     id="use220" />
                  <use
                     height="100%"
                     width="100%"
                     y="0"
                     x="127.24609"
                     xlink:href="#DejaVuSans-48"
                     id="use222" />
                  <use
                     height="100%"
                     width="100%"
                     y="0"
                     x="190.86914"
                     xlink:href="#DejaVuSans-48"
                     id="use224" />
                  <use
                     height="100%"
                     width="100%"
                     y="0"
                     x="254.49219"
                     xlink:href="#DejaVuSans-48"
                     id="use226" />
                </g>
              </g>
            </g>
            <g
               id="ytick_3">
              <g
                 id="line2d_12">
                <g
                   id="g234">
                  <use
                     height="100%"
                     width="100%"
                     style="stroke:#000000;stroke-width:0.8"
                     x="60.119999"
                     xlink:href="#me2b02cb958"
                     y="245.73665"
                     id="use232" />
                </g>
              </g>
              <g
                 id="text_13">
                <!-- 15000 -->
                <g
                   transform="matrix(0.1,0,0,-0.1,21.3075,249.53587)"
                   id="g247">
                  <use
                     height="100%"
                     width="100%"
                     y="0"
                     x="0"
                     xlink:href="#DejaVuSans-49"
                     id="use237" />
                  <use
                     height="100%"
                     width="100%"
                     y="0"
                     x="63.623047"
                     xlink:href="#DejaVuSans-53"
                     id="use239" />
                  <use
                     height="100%"
                     width="100%"
                     y="0"
                     x="127.24609"
                     xlink:href="#DejaVuSans-48"
                     id="use241" />
                  <use
                     height="100%"
                     width="100%"
                     y="0"
                     x="190.86914"
                     xlink:href="#DejaVuSans-48"
                     id="use243" />
                  <use
                     height="100%"
                     width="100%"
                     y="0"
                     x="254.49219"
                     xlink:href="#DejaVuSans-48"
                     id="use245" />
                </g>
              </g>
            </g>
            <g
               id="ytick_4">
              <g
                 id="line2d_13">
                <g
                   id="g253">
                  <use
                     height="100%"
                     width="100%"
                     style="stroke:#000000;stroke-width:0.8"
                     x="60.119999"
                     xlink:href="#me2b02cb958"
                     y="205.71637"
                     id="use251" />
                </g>
              </g>
              <g
                 id="text_14">
                <!-- 20000 -->
                <g
                   transform="matrix(0.1,0,0,-0.1,21.3075,209.51559)"
                   id="g266">
                  <use
                     height="100%"
                     width="100%"
                     y="0"
                     x="0"
                     xlink:href="#DejaVuSans-50"
                     id="use256" />
                  <use
                     height="100%"
                     width="100%"
                     y="0"
                     x="63.623047"
                     xlink:href="#DejaVuSans-48"
                     id="use258" />
                  <use
                     height="100%"
                     width="100%"
                     y="0"
                     x="127.24609"
                     xlink:href="#DejaVuSans-48"
                     id="use260" />
                  <use
                     height="100%"
                     width="100%"
                     y="0"
                     x="190.86914"
                     xlink:href="#DejaVuSans-48"
                     id="use262" />
                  <use
                     height="100%"
                     width="100%"
                     y="0"
                     x="254.49219"
                     xlink:href="#DejaVuSans-48"
                     id="use264" />
                </g>
              </g>
            </g>
            <g
               id="ytick_5">
              <g
                 id="line2d_14">
                <g
                   id="g272">
                  <use
                     height="100%"
                     width="100%"
                     style="stroke:#000000;stroke-width:0.8"
                     x="60.119999"
                     xlink:href="#me2b02cb958"
                     y="165.69609"
                     id="use270" />
                </g>
              </g>
              <g
                 id="text_15">
                <!-- 25000 -->
                <g
                   transform="matrix(0.1,0,0,-0.1,21.3075,169.49531)"
                   id="g285">
                  <use
                     height="100%"
                     width="100%"
                     y="0"
                     x="0"
                     xlink:href="#DejaVuSans-50"
                     id="use275" />
                  <use
                     height="100%"
                     width="100%"
                     y="0"
                     x="63.623047"
                     xlink:href="#DejaVuSans-53"
                     id="use277" />
                  <use
                     height="100%"
                     width="100%"
                     y="0"
                     x="127.24609"
                     xlink:href="#DejaVuSans-48"
                     id="use279" />
                  <use
                     height="100%"
                     width="100%"
                     y="0"
                     x="190.86914"
                     xlink:href="#DejaVuSans-48"
                     id="use281" />
                  <use
                     height="100%"
                     width="100%"
                     y="0"
                     x="254.49219"
                     xlink:href="#DejaVuSans-48"
                     id="use283" />
                </g>
              </g>
            </g>
            <g
               id="ytick_6">
              <g
                 id="line2d_15">
                <g
                   id="g291">
                  <use
                     height="100%"
                     width="100%"
                     style="stroke:#000000;stroke-width:0.8"
                     x="60.119999"
                     xlink:href="#me2b02cb958"
                     y="125.67581"
                     id="use289" />
                </g>
              </g>
              <g
                 id="text_16">
                <!-- 30000 -->
                <g
                   transform="matrix(0.1,0,0,-0.1,21.3075,129.47503)"
                   id="g304">
                  <use
                     height="100%"
                     width="100%"
                     y="0"
                     x="0"
                     xlink:href="#DejaVuSans-51"
                     id="use294" />
                  <use
                     height="100%"
                     width="100%"
                     y="0"
                     x="63.623047"
                     xlink:href="#DejaVuSans-48"
                     id="use296" />
                  <use
                     height="100%"
                     width="100%"
                     y="0"
                     x="127.24609"
                     xlink:href="#DejaVuSans-48"
                     id="use298" />
                  <use
                     height="100%"
                     width="100%"
                     y="0"
                     x="190.86914"
                     xlink:href="#DejaVuSans-48"
                     id="use300" />
                  <use
                     height="100%"
                     width="100%"
                     y="0"
                     x="254.49219"
                     xlink:href="#DejaVuSans-48"
                     id="use302" />
                </g>
              </g>
            </g>
            <g
               id="ytick_7">
              <g
                 id="line2d_16">
                <g
                   id="g310">
                  <use
                     height="100%"
                     width="100%"
                     style="stroke:#000000;stroke-width:0.8"
                     x="60.119999"
                     xlink:href="#me2b02cb958"
                     y="85.655533"
                     id="use308" />
                </g>
              </g>
              <g
                 id="text_17">
                <!-- 35000 -->
                <g
                   transform="matrix(0.1,0,0,-0.1,21.3075,89.454751)"
                   id="g323">
                  <use
                     height="100%"
                     width="100%"
                     y="0"
                     x="0"
                     xlink:href="#DejaVuSans-51"
                     id="use313" />
                  <use
                     height="100%"
                     width="100%"
                     y="0"
                     x="63.623047"
                     xlink:href="#DejaVuSans-53"
                     id="use315" />
                  <use
                     height="100%"
                     width="100%"
                     y="0"
                     x="127.24609"
                     xlink:href="#DejaVuSans-48"
                     id="use317" />
                  <use
                     height="100%"
                     width="100%"
                     y="0"
                     x="190.86914"
                     xlink:href="#DejaVuSans-48"
                     id="use319" />
                  <use
                     height="100%"
                     width="100%"
                     y="0"
                     x="254.49219"
                     xlink:href="#DejaVuSans-48"
                     id="use321" />
                </g>
              </g>
            </g>
            <g
               id="ytick_8">
              <g
                 id="line2d_17">
                <g
                   id="g329">
                  <use
                     height="100%"
                     width="100%"
                     style="stroke:#000000;stroke-width:0.8"
                     x="60.119999"
                     xlink:href="#me2b02cb958"
                     y="45.635254"
                     id="use327" />
                </g>
              </g>
              <g
                 id="text_18">
                <!-- 40000 -->
                <g
                   transform="matrix(0.1,0,0,-0.1,21.3075,49.43447)"
                   id="g342">
                  <use
                     height="100%"
                     width="100%"
                     y="0"
                     x="0"
                     xlink:href="#DejaVuSans-52"
                     id="use332" />
                  <use
                     height="100%"
                     width="100%"
                     y="0"
                     x="63.623047"
                     xlink:href="#DejaVuSans-48"
                     id="use334" />
                  <use
                     height="100%"
                     width="100%"
                     y="0"
                     x="127.24609"
                     xlink:href="#DejaVuSans-48"
                     id="use336" />
                  <use
                     height="100%"
                     width="100%"
                     y="0"
                     x="190.86914"
                     xlink:href="#DejaVuSans-48"
                     id="use338" />
                  <use
                     height="100%"
                     width="100%"
                     y="0"
                     x="254.49219"
                     xlink:href="#DejaVuSans-48"
                     id="use340" />
                </g>
              </g>
            </g>
            <g
               id="text_19">
              <!-- PRICE -->
              <defs
                 id="defs350">
                <path
                   d="m 44.390625,34.1875 q 3.171875,-1.078125 6.171875,-4.59375 3,-3.515625 6.03125,-9.671875 L 66.609375,0 H 56 l -9.3125,18.703125 q -3.625,7.328125 -7.015625,9.71875 -3.390625,2.390625 -9.25,2.390625 h -10.75 V 0 H 9.8125 v 72.90625 h 22.265625 q 12.5,0 18.65625,-5.234375 6.15625,-5.21875 6.15625,-15.765625 0,-6.890625 -3.203125,-11.4375 -3.203125,-4.53125 -9.296875,-6.28125 z m -24.71875,30.609375 v -25.875 h 12.40625 q 7.125,0 10.765625,3.296875 3.640625,3.296875 3.640625,9.6875 0,6.390625 -3.640625,9.640625 -3.640625,3.25 -10.765625,3.25 z"
                   id="path642" />
                <path
                   d="m 9.8125,72.90625 h 9.859375 V 0 H 9.8125 Z"
                   id="path644" />
                <path
                   d="M 64.40625,67.28125 V 56.890625 q -4.984375,4.640625 -10.625,6.921875 -5.640625,2.296875 -11.984375,2.296875 -12.5,0 -19.140625,-7.640625 -6.640625,-7.640625 -6.640625,-22.09375 0,-14.40625 6.640625,-22.046875 Q 29.296875,6.6875 41.796875,6.6875 q 6.34375,0 11.984375,2.296875 5.640625,2.296875 10.625,6.9375 V 5.609375 Q 59.234375,2.09375 53.4375,0.328125 q -5.78125,-1.75 -12.21875,-1.75 -16.5625,0 -26.09375,10.125 Q 5.609375,18.84375 5.609375,36.375 q 0,17.578125 9.515625,27.703125 9.53125,10.140625 26.09375,10.140625 6.53125,0 12.3125,-1.734375 5.796875,-1.734375 10.875,-5.203125 z"
                   id="path646" />
                <path
                   d="m 9.8125,72.90625 h 46.09375 v -8.3125 H 19.671875 V 43.015625 h 34.71875 V 34.71875 H 19.671875 V 8.296875 H 56.78125 V 0 H 9.8125 Z"
                   id="path648" />
              </defs>
              <g
                 transform="matrix(0,-0.1,-0.1,0,15.227812,204.41404)"
                 id="g362">
                <use
                   height="100%"
                   width="100%"
                   y="0"
                   x="0"
                   xlink:href="#DejaVuSans-80"
                   id="use352" />
                <use
                   height="100%"
                   width="100%"
                   y="0"
                   x="60.302734"
                   xlink:href="#DejaVuSans-82"
                   id="use354" />
                <use
                   height="100%"
                   width="100%"
                   y="0"
                   x="129.78516"
                   xlink:href="#DejaVuSans-73"
                   id="use356" />
                <use
                   height="100%"
                   width="100%"
                   y="0"
                   x="159.27734"
                   xlink:href="#DejaVuSans-67"
                   id="use358" />
                <use
                   height="100%"
                   width="100%"
                   y="0"
                   x="229.10156"
                   xlink:href="#DejaVuSans-69"
                   id="use360" />
              </g>
            </g>
          </g>
          <g
             id="line2d_18">
            <path
               clip-path="url(#p5bff75efea)"
               d="m 77.062909,58.2552 338.858181,263.088 v 0"
               style="fill:none;stroke:#1f77b4;stroke-width:1.5;stroke-linecap:square"
               id="path366" />
          </g>
          <g
             id="patch_3">
            <path
               d="M 60.12,334.4976 V 45.1008"
               style="fill:none;stroke:#000000;stroke-width:0.8;stroke-linecap:square;stroke-linejoin:miter"
               id="path369" />
          </g>
          <g
             id="patch_4">
            <path
               d="M 432.864,334.4976 V 45.1008"
               style="fill:none;stroke:#000000;stroke-width:0.8;stroke-linecap:square;stroke-linejoin:miter"
               id="path372" />
          </g>
          <g
             id="patch_5">
            <path
               d="M 60.12,334.4976 H 432.864"
               style="fill:none;stroke:#000000;stroke-width:0.8;stroke-linecap:square;stroke-linejoin:miter"
               id="path375" />
          </g>
          <g
             id="patch_6">
            <path
               d="M 60.12,45.1008 H 432.864"
               style="fill:none;stroke:#000000;stroke-width:0.8;stroke-linecap:square;stroke-linejoin:miter"
               id="path378" />
          </g>
        </g>
      </g>
    </g>
    <ellipse
       ry="0.76013702"
       rx="0.72792459"
       cy="35.790527"
       cx="44.55946"
       id="path1716"
       style="opacity:0.99;fill:#ff3300;stroke:#000000;stroke-width:0.197122;stroke-miterlimit:4;stroke-dasharray:0.394244, 0.197122;stroke-dashoffset:0;stroke-opacity:1" />
    <ellipse
       ry="0.76013702"
       rx="0.72792459"
       style="opacity:0.99;fill:#ff3300;stroke:#000000;stroke-width:0.197122;stroke-miterlimit:4;stroke-dasharray:0.197122, 0.197122;stroke-dashoffset:0;stroke-opacity:1"
       id="circle1718"
       cx="63.270729"
       cy="50.92062" />
    <ellipse
       ry="0.76013702"
       rx="0.72792459"
       cy="69.234055"
       cx="86.082993"
       id="circle1720"
       style="opacity:0.99;fill:#ff3300;stroke:#000000;stroke-width:0.197122;stroke-miterlimit:4;stroke-dasharray:0.197122, 0.197122;stroke-dashoffset:0;stroke-opacity:1" />
    <ellipse
       ry="0.76013702"
       rx="0.72792459"
       cy="59.792549"
       cx="74.321999"
       id="circle1758"
       style="opacity:0.99;fill:#ff3300;stroke:#000000;stroke-width:0.197122;stroke-miterlimit:4;stroke-dasharray:0.197122, 0.197122;stroke-dashoffset:0;stroke-opacity:1" />
    <ellipse
       ry="0.76013702"
       rx="0.72792459"
       cy="43.007359"
       cx="53.657887"
       id="circle1760"
       style="opacity:0.99;fill:#ff3300;stroke:#000000;stroke-width:0.197122;stroke-miterlimit:4;stroke-dasharray:0.197122, 0.197122;stroke-dashoffset:0;stroke-opacity:1" />
    <ellipse
       ry="0.76013702"
       rx="0.72792459"
       style="opacity:0.99;fill:#ff3300;stroke:#000000;stroke-width:0.197122;stroke-miterlimit:4;stroke-dasharray:0.394244, 0.197122;stroke-dashoffset:0;stroke-opacity:1"
       id="circle1762"
       cx="33.949287"
       cy="26.960098" />
    <ellipse
       ry="0.76013702"
       rx="0.72792459"
       style="opacity:0.99;fill:#ff3300;stroke:#000000;stroke-width:0.197122;stroke-miterlimit:4;stroke-dasharray:0.197122, 0.197122;stroke-dashoffset:0;stroke-opacity:1"
       id="circle1764"
       cx="95.540085"
       cy="77.044243" />
    <rect
       ry="5.5453987"
       y="36.975388"
       x="138.73337"
       height="33.159992"
       width="49.763336"
       id="rect1766"
       style="opacity:0.99;fill:#0066cc;stroke:#000000;stroke-width:0.190894;stroke-miterlimit:4;stroke-dasharray:0.190894, 0.190894;stroke-dashoffset:0;stroke-opacity:1" />
    <text
       style="font-size:10.5833px;line-height:0.95;font-family:sans-serif;letter-spacing:0px;word-spacing:0px;white-space:pre;shape-inside:url(#rect1770);"
       id="text1768"
       xml:space="preserve"><tspan
         style="visibility:hidden"
         x="140.58008"
         y="76.391479"><tspan
           dx="0 6.0977998 3.1212468"
           style="stroke-linecap:butt;stroke-linejoin:round">FIT</tspan></tspan></text>
    <text
       transform="matrix(1.3834998,0,0,1.2864194,-48.959941,-5.4649615)"
       style="font-size:10.5833px;line-height:0.95;font-family:sans-serif;letter-spacing:0px;word-spacing:0px;white-space:pre;shape-inside:url(#rect1776);"
       id="text1774"
       xml:space="preserve"><tspan
         x="145.27344"
         y="49.737182"><tspan
           style="stroke-linecap:butt;stroke-linejoin:round">FIT</tspan></tspan></text>
    <path
       sodipodi:nodetypes="cccccccc"
       id="path1780"
       d="m 113.26329,51.316738 h 13.66366 l 0.0602,-4.304467 10.40779,6.988009 -10.30685,7.214199 -0.0296,-4.247114 h -13.71937 z"
       style="fill:#ff3300;stroke:#000000;stroke-width:0.264583px;stroke-linecap:butt;stroke-linejoin:miter;stroke-opacity:1" />
    <ellipse
       cy="43.803692"
       cx="146.85898"
       id="ellipse1782"
       style="opacity:0.99;fill:#ff3300;stroke:#000000;stroke-width:0.197122;stroke-miterlimit:4;stroke-dasharray:0.394244, 0.197122;stroke-dashoffset:0;stroke-opacity:1"
       rx="0.72792459"
       ry="0.76013702" />
    <ellipse
       ry="0.76013702"
       rx="0.72792459"
       style="opacity:0.99;fill:#ff3300;stroke:#000000;stroke-width:0.197122;stroke-miterlimit:4;stroke-dasharray:0.394244, 0.197122;stroke-dashoffset:0;stroke-opacity:1"
       id="ellipse1784"
       cx="149.41867"
       cy="49.553558" />
    <ellipse
       cy="40.970421"
       cx="156.6927"
       id="ellipse1786"
       style="opacity:0.99;fill:#ff3300;stroke:#000000;stroke-width:0.197122;stroke-miterlimit:4;stroke-dasharray:0.394244, 0.197122;stroke-dashoffset:0;stroke-opacity:1"
       rx="0.72792459"
       ry="0.76013702" />
    <ellipse
       ry="0.76013702"
       rx="0.72792459"
       style="opacity:0.99;fill:#ff3300;stroke:#000000;stroke-width:0.197122;stroke-miterlimit:4;stroke-dasharray:0.394244, 0.197122;stroke-dashoffset:0;stroke-opacity:1"
       id="ellipse1788"
       cx="166.29808"
       cy="40.421288" />
    <ellipse
       inkscape:transform-center-y="-4.7765949"
       inkscape:transform-center-x="-0.22735225"
       cy="45.245953"
       cx="163.51869"
       id="ellipse1790"
       style="opacity:0.99;fill:#ff3300;stroke:#000000;stroke-width:0.197122;stroke-miterlimit:4;stroke-dasharray:0.394244, 0.197122;stroke-dashoffset:0;stroke-opacity:1"
       rx="0.72792459"
       ry="0.76013702" />
    <ellipse
       ry="0.76013702"
       rx="0.72792459"
       style="opacity:0.99;fill:#ff3300;stroke:#000000;stroke-width:0.197122;stroke-miterlimit:4;stroke-dasharray:0.394244, 0.197122;stroke-dashoffset:0;stroke-opacity:1"
       id="ellipse1792"
       cx="158.98936"
       cy="62.414684" />
    <ellipse
       cy="61.009243"
       cx="150.02339"
       id="ellipse1794"
       style="opacity:0.99;fill:#ff3300;stroke:#000000;stroke-width:0.197122;stroke-miterlimit:4;stroke-dasharray:0.394244, 0.197122;stroke-dashoffset:0;stroke-opacity:1"
       rx="0.72792459"
       ry="0.76013702" />
    <ellipse
       ry="0.76013702"
       rx="0.72792459"
       style="opacity:0.99;fill:#ff3300;stroke:#000000;stroke-width:0.197122;stroke-miterlimit:4;stroke-dasharray:0.394244, 0.197122;stroke-dashoffset:0;stroke-opacity:1"
       id="ellipse1796"
       cx="145.15382"
       cy="54.63723" />
    <ellipse
       cy="53.670025"
       cx="175.75125"
       id="ellipse1798"
       style="opacity:0.99;fill:#ff3300;stroke:#000000;stroke-width:0.197122;stroke-miterlimit:4;stroke-dasharray:0.394244, 0.197122;stroke-dashoffset:0;stroke-opacity:1"
       rx="0.72792459"
       ry="0.76013702" />
    <ellipse
       ry="0.76013702"
       rx="0.72792459"
       style="opacity:0.99;fill:#ff3300;stroke:#000000;stroke-width:0.197122;stroke-miterlimit:4;stroke-dasharray:0.394244, 0.197122;stroke-dashoffset:0;stroke-opacity:1"
       id="ellipse1800"
       cx="179.49303"
       cy="45.919247" />
    <ellipse
       cy="62.023067"
       cx="177.97604"
       id="ellipse1802"
       style="opacity:0.99;fill:#ff3300;stroke:#000000;stroke-width:0.197122;stroke-miterlimit:4;stroke-dasharray:0.394244, 0.197122;stroke-dashoffset:0;stroke-opacity:1"
       rx="0.72792459"
       ry="0.76013702" />
    <ellipse
       ry="0.76013702"
       rx="0.72792459"
       style="opacity:0.99;fill:#ff3300;stroke:#000000;stroke-width:0.197122;stroke-miterlimit:4;stroke-dasharray:0.394244, 0.197122;stroke-dashoffset:0;stroke-opacity:1"
       id="ellipse1804"
       cx="182.04974"
       cy="58.169029" />
    <ellipse
       ry="0.76013702"
       rx="0.72792459"
       style="opacity:0.99;fill:#ff3300;stroke:#000000;stroke-width:0.197122;stroke-miterlimit:4;stroke-dasharray:0.394244, 0.197122;stroke-dashoffset:0;stroke-opacity:1"
       id="ellipse1806"
       cx="168.35957"
       cy="65.141037" />
    <ellipse
       cy="42.467869"
       cx="173.2802"
       id="ellipse1808"
       style="opacity:0.99;fill:#ff3300;stroke:#000000;stroke-width:0.197122;stroke-miterlimit:4;stroke-dasharray:0.394244, 0.197122;stroke-dashoffset:0;stroke-opacity:1"
       rx="0.72792459"
       ry="0.76013702" />
    <path
       style="fill:#ff3300;stroke:#000000;stroke-width:0.264583px;stroke-linecap:butt;stroke-linejoin:miter;stroke-opacity:1"
       d="m 191.8572,51.255259 h 13.66366 l 0.0602,-4.304467 10.40779,6.988009 L 205.682,61.153 205.6524,56.905886 h -13.71937 z"
       id="path1810"
       sodipodi:nodetypes="cccccccc" />
    <text
       transform="translate(-1.1604202,10.024671)"
       style="font-size:10.5833px;line-height:0.95;font-family:sans-serif;letter-spacing:0px;word-spacing:0px;white-space:pre;shape-inside:url(#rect1814);"
       id="text1812"
       xml:space="preserve"><tspan
         x="217.32812"
         y="46.47937"><tspan
           style="shape-inside:url(#rect1814)">(b</tspan><tspan
           style="font-size:65%;baseline-shift:sub;stroke-linecap:butt;stroke-linejoin:round">0</tspan><tspan
           style="shape-inside:url(#rect1814)">,b</tspan><tspan
           style="font-size:65%;baseline-shift:sub;stroke-linecap:butt;stroke-linejoin:round">1</tspan><tspan
           style="shape-inside:url(#rect1814)">)</tspan></tspan></text>
    <path
       style="fill:#ff3300;stroke:#000000;stroke-width:0.264583px;stroke-linecap:butt;stroke-linejoin:miter;stroke-opacity:1"
       d="m 113.26329,51.316738 h 13.66366 l 0.0602,-4.304467 10.40779,6.988009 -10.30685,7.214199 -0.0296,-4.247114 h -13.71937 z"
       id="path1826"
       sodipodi:nodetypes="cccccccc" />
  </g>
</svg>
