<?xml version="1.0" encoding="UTF-8" standalone="no"?>
<svg
   xmlns:dc="http://purl.org/dc/elements/1.1/"
   xmlns:cc="http://creativecommons.org/ns#"
   xmlns:rdf="http://www.w3.org/1999/02/22-rdf-syntax-ns#"
   xmlns:svg="http://www.w3.org/2000/svg"
   xmlns="http://www.w3.org/2000/svg"
   xmlns:xlink="http://www.w3.org/1999/xlink"
   xmlns:sodipodi="http://sodipodi.sourceforge.net/DTD/sodipodi-0.dtd"
   xmlns:inkscape="http://www.inkscape.org/namespaces/inkscape"
   sodipodi:docname="noise.svg"
   inkscape:version="1.0 (1.0+r73+1)"
   id="svg8"
   version="1.1"
   viewBox="0 0 210 297"
   height="297mm"
   width="210mm">
  <defs
     id="defs2">
    <style
       type="text/css"
       id="style10">
*{stroke-linecap:butt;stroke-linejoin:round;}
  </style>
    <path
       d="M 0 0  L 0 3.5  "
       id="m6021e662d9"
       style="stroke:#000000;stroke-width:0.8;" />
    <path
       d="M 10.59375 35.5  L 73.1875 35.5  L 73.1875 27.203125  L 10.59375 27.203125  z "
       id="DejaVuSans-8722" />
    <path
       d="M 37.796875 64.3125  L 12.890625 25.390625  L 37.796875 25.390625  z M 35.203125 72.90625  L 47.609375 72.90625  L 47.609375 25.390625  L 58.015625 25.390625  L 58.015625 17.1875  L 47.609375 17.1875  L 47.609375 0  L 37.796875 0  L 37.796875 17.1875  L 4.890625 17.1875  L 4.890625 26.703125  z "
       id="DejaVuSans-52" />
    <path
       d="M 19.1875 8.296875  L 53.609375 8.296875  L 53.609375 0  L 7.328125 0  L 7.328125 8.296875  Q 12.9375 14.109375 22.625 23.890625  Q 32.328125 33.6875 34.8125 36.53125  Q 39.546875 41.84375 41.421875 45.53125  Q 43.3125 49.21875 43.3125 52.78125  Q 43.3125 58.59375 39.234375 62.25  Q 35.15625 65.921875 28.609375 65.921875  Q 23.96875 65.921875 18.8125 64.3125  Q 13.671875 62.703125 7.8125 59.421875  L 7.8125 69.390625  Q 13.765625 71.78125 18.9375 73  Q 24.125 74.21875 28.421875 74.21875  Q 39.75 74.21875 46.484375 68.546875  Q 53.21875 62.890625 53.21875 53.421875  Q 53.21875 48.921875 51.53125 44.890625  Q 49.859375 40.875 45.40625 35.40625  Q 44.1875 33.984375 37.640625 27.21875  Q 31.109375 20.453125 19.1875 8.296875  z "
       id="DejaVuSans-50" />
    <path
       d="M 31.78125 66.40625  Q 24.171875 66.40625 20.328125 58.90625  Q 16.5 51.421875 16.5 36.375  Q 16.5 21.390625 20.328125 13.890625  Q 24.171875 6.390625 31.78125 6.390625  Q 39.453125 6.390625 43.28125 13.890625  Q 47.125 21.390625 47.125 36.375  Q 47.125 51.421875 43.28125 58.90625  Q 39.453125 66.40625 31.78125 66.40625  z M 31.78125 74.21875  Q 44.046875 74.21875 50.515625 64.515625  Q 56.984375 54.828125 56.984375 36.375  Q 56.984375 17.96875 50.515625 8.265625  Q 44.046875 -1.421875 31.78125 -1.421875  Q 19.53125 -1.421875 13.0625 8.265625  Q 6.59375 17.96875 6.59375 36.375  Q 6.59375 54.828125 13.0625 64.515625  Q 19.53125 74.21875 31.78125 74.21875  z "
       id="DejaVuSans-48" />
    <path
       d="M 0 0  L -3.5 0  "
       id="m8d5328635b"
       style="stroke:#000000;stroke-width:0.8;" />
    <path
       d="M 10.6875 12.40625  L 21 12.40625  L 21 0  L 10.6875 0  z "
       id="DejaVuSans-46" />
    <path
       d="M 10.796875 72.90625  L 49.515625 72.90625  L 49.515625 64.59375  L 19.828125 64.59375  L 19.828125 46.734375  Q 21.96875 47.46875 24.109375 47.828125  Q 26.265625 48.1875 28.421875 48.1875  Q 40.625 48.1875 47.75 41.5  Q 54.890625 34.8125 54.890625 23.390625  Q 54.890625 11.625 47.5625 5.09375  Q 40.234375 -1.421875 26.90625 -1.421875  Q 22.3125 -1.421875 17.546875 -0.640625  Q 12.796875 0.140625 7.71875 1.703125  L 7.71875 11.625  Q 12.109375 9.234375 16.796875 8.0625  Q 21.484375 6.890625 26.703125 6.890625  Q 35.15625 6.890625 40.078125 11.328125  Q 45.015625 15.765625 45.015625 23.390625  Q 45.015625 31 40.078125 35.4375  Q 35.15625 39.890625 26.703125 39.890625  Q 22.75 39.890625 18.8125 39.015625  Q 14.890625 38.140625 10.796875 36.28125  z "
       id="DejaVuSans-53" />
    <path
       d="M 12.40625 8.296875  L 28.515625 8.296875  L 28.515625 63.921875  L 10.984375 60.40625  L 10.984375 69.390625  L 28.421875 72.90625  L 38.28125 72.90625  L 38.28125 8.296875  L 54.390625 8.296875  L 54.390625 0  L 12.40625 0  z "
       id="DejaVuSans-49" />
    <path
       d="M 40.578125 39.3125  Q 47.65625 37.796875 51.625 33  Q 55.609375 28.21875 55.609375 21.1875  Q 55.609375 10.40625 48.1875 4.484375  Q 40.765625 -1.421875 27.09375 -1.421875  Q 22.515625 -1.421875 17.65625 -0.515625  Q 12.796875 0.390625 7.625 2.203125  L 7.625 11.71875  Q 11.71875 9.328125 16.59375 8.109375  Q 21.484375 6.890625 26.8125 6.890625  Q 36.078125 6.890625 40.9375 10.546875  Q 45.796875 14.203125 45.796875 21.1875  Q 45.796875 27.640625 41.28125 31.265625  Q 36.765625 34.90625 28.71875 34.90625  L 20.21875 34.90625  L 20.21875 43.015625  L 29.109375 43.015625  Q 36.375 43.015625 40.234375 45.921875  Q 44.09375 48.828125 44.09375 54.296875  Q 44.09375 59.90625 40.109375 62.90625  Q 36.140625 65.921875 28.71875 65.921875  Q 24.65625 65.921875 20.015625 65.03125  Q 15.375 64.15625 9.8125 62.3125  L 9.8125 71.09375  Q 15.4375 72.65625 20.34375 73.4375  Q 25.25 74.21875 29.59375 74.21875  Q 40.828125 74.21875 47.359375 69.109375  Q 53.90625 64.015625 53.90625 55.328125  Q 53.90625 49.265625 50.4375 45.09375  Q 46.96875 40.921875 40.578125 39.3125  z "
       id="DejaVuSans-51" />
    <clipPath
       id="pc1421dc5a0">
      <rect
         height="266.112"
         width="357.12"
         x="57.6"
         y="41.472"
         id="rect279" />
    </clipPath>
  </defs>
  <sodipodi:namedview
     inkscape:window-maximized="1"
     inkscape:window-y="27"
     inkscape:window-x="67"
     inkscape:window-height="1025"
     inkscape:window-width="1853"
     showgrid="false"
     inkscape:document-rotation="0"
     inkscape:current-layer="layer1"
     inkscape:document-units="mm"
     inkscape:cy="195.12338"
     inkscape:cx="240.22563"
     inkscape:zoom="1.9181649"
     inkscape:pageshadow="2"
     inkscape:pageopacity="0.0"
     borderopacity="1.0"
     bordercolor="#666666"
     pagecolor="#ffffff"
     id="base" />
  <metadata
     id="metadata5">
    <rdf:RDF>
      <cc:Work
         rdf:about="">
        <dc:format>image/svg+xml</dc:format>
        <dc:type
           rdf:resource="http://purl.org/dc/dcmitype/StillImage" />
        <dc:title></dc:title>
      </cc:Work>
    </rdf:RDF>
  </metadata>
  <g
     id="layer1"
     inkscape:groupmode="layer"
     inkscape:label="Layer 1">
    <g
       transform="scale(0.1953125,0.23148148)"
       id="g477"
       style="stroke-linecap:butt;stroke-linejoin:round">
      <g
         id="figure_1">
        <g
           id="patch_1">
          <path
             d="M 0,345.6 H 460.8 V 0 H 0 Z"
             style="fill:#ffffff"
             id="path14" />
        </g>
        <g
           id="axes_1">
          <g
             id="patch_2">
            <path
               d="M 57.6,307.584 H 414.72 V 41.472 H 57.6 Z"
               style="fill:#ffffff"
               id="path17" />
          </g>
          <g
             id="matplotlib.axis_1">
            <g
               id="xtick_1">
              <g
                 id="line2d_1">
                <defs
                   id="defs21">
                  <path
                     d="M 0,0 V 3.5"
                     id="path307"
                     style="stroke:#000000;stroke-width:0.8" />
                </defs>
                <g
                   id="g25">
                  <use
                     height="100%"
                     width="100%"
                     style="stroke:#000000;stroke-width:0.8"
                     x="101.04625"
                     xlink:href="#m6021e662d9"
                     y="307.58401"
                     id="use23" />
                </g>
              </g>
              <g
                 id="text_1">
                <!-- −4 -->
                <defs
                   id="defs30">
                  <path
                     d="M 10.59375,35.5 H 73.1875 V 27.203125 H 10.59375 Z"
                     id="path313" />
                  <path
                     d="M 37.796875,64.3125 12.890625,25.390625 h 24.90625 z m -2.59375,8.59375 h 12.40625 V 25.390625 h 10.40625 V 17.1875 H 47.609375 V 0 h -9.8125 V 17.1875 H 4.890625 v 9.515625 z"
                     id="path315" />
                </defs>
                <g
                   transform="matrix(0.1,0,0,-0.1,93.675154,322.18244)"
                   id="g36">
                  <use
                     height="100%"
                     width="100%"
                     y="0"
                     x="0"
                     xlink:href="#DejaVuSans-8722"
                     id="use32" />
                  <use
                     height="100%"
                     width="100%"
                     y="0"
                     x="83.789062"
                     xlink:href="#DejaVuSans-52"
                     id="use34" />
                </g>
              </g>
            </g>
            <g
               id="xtick_2">
              <g
                 id="line2d_2">
                <g
                   id="g42">
                  <use
                     height="100%"
                     width="100%"
                     style="stroke:#000000;stroke-width:0.8"
                     x="164.4006"
                     xlink:href="#m6021e662d9"
                     y="307.58401"
                     id="use40" />
                </g>
              </g>
              <g
                 id="text_2">
                <!-- −2 -->
                <defs
                   id="defs46">
                  <path
                     d="M 19.1875,8.296875 H 53.609375 V 0 H 7.328125 v 8.296875 q 5.609375,5.8125 15.296875,15.59375 9.703125,9.796875 12.1875,12.640625 4.734375,5.3125 6.609375,9 1.890625,3.6875 1.890625,7.25 0,5.8125 -4.078125,9.46875 -4.078125,3.671875 -10.625,3.671875 -4.640625,0 -9.796875,-1.609375 -5.140625,-1.609375 -11,-4.890625 v 9.96875 Q 13.765625,71.78125 18.9375,73 q 5.1875,1.21875 9.484375,1.21875 11.328125,0 18.0625,-5.671875 6.734375,-5.65625 6.734375,-15.125 0,-4.5 -1.6875,-8.53125 Q 49.859375,40.875 45.40625,35.40625 44.1875,33.984375 37.640625,27.21875 31.109375,20.453125 19.1875,8.296875 Z"
                     id="path326" />
                </defs>
                <g
                   transform="matrix(0.1,0,0,-0.1,157.02952,322.18244)"
                   id="g52">
                  <use
                     height="100%"
                     width="100%"
                     y="0"
                     x="0"
                     xlink:href="#DejaVuSans-8722"
                     id="use48" />
                  <use
                     height="100%"
                     width="100%"
                     y="0"
                     x="83.789062"
                     xlink:href="#DejaVuSans-50"
                     id="use50" />
                </g>
              </g>
            </g>
            <g
               id="xtick_3">
              <g
                 id="line2d_3">
                <g
                   id="g58">
                  <use
                     height="100%"
                     width="100%"
                     style="stroke:#000000;stroke-width:0.8"
                     x="227.75497"
                     xlink:href="#m6021e662d9"
                     y="307.58401"
                     id="use56" />
                </g>
              </g>
              <g
                 id="text_3">
                <!-- 0 -->
                <defs
                   id="defs62">
                  <path
                     d="m 31.78125,66.40625 q -7.609375,0 -11.453125,-7.5 Q 16.5,51.421875 16.5,36.375 q 0,-14.984375 3.828125,-22.484375 3.84375,-7.5 11.453125,-7.5 7.671875,0 11.5,7.5 3.84375,7.5 3.84375,22.484375 0,15.046875 -3.84375,22.53125 -3.828125,7.5 -11.5,7.5 z m 0,7.8125 q 12.265625,0 18.734375,-9.703125 6.46875,-9.6875 6.46875,-28.140625 0,-18.40625 -6.46875,-28.109375 -6.46875,-9.6875 -18.734375,-9.6875 -12.25,0 -18.71875,9.6875 Q 6.59375,17.96875 6.59375,36.375 q 0,18.453125 6.46875,28.140625 6.46875,9.703125 18.71875,9.703125 z"
                     id="path337" />
                </defs>
                <g
                   transform="matrix(0.1,0,0,-0.1,224.57372,322.18244)"
                   id="g66">
                  <use
                     height="100%"
                     width="100%"
                     y="0"
                     x="0"
                     xlink:href="#DejaVuSans-48"
                     id="use64" />
                </g>
              </g>
            </g>
            <g
               id="xtick_4">
              <g
                 id="line2d_4">
                <g
                   id="g72">
                  <use
                     height="100%"
                     width="100%"
                     style="stroke:#000000;stroke-width:0.8"
                     x="291.10934"
                     xlink:href="#m6021e662d9"
                     y="307.58401"
                     id="use70" />
                </g>
              </g>
              <g
                 id="text_4">
                <!-- 2 -->
                <g
                   transform="matrix(0.1,0,0,-0.1,287.92808,322.18244)"
                   id="g77">
                  <use
                     height="100%"
                     width="100%"
                     y="0"
                     x="0"
                     xlink:href="#DejaVuSans-50"
                     id="use75" />
                </g>
              </g>
            </g>
            <g
               id="xtick_5">
              <g
                 id="line2d_5">
                <g
                   id="g83">
                  <use
                     height="100%"
                     width="100%"
                     style="stroke:#000000;stroke-width:0.8"
                     x="354.46368"
                     xlink:href="#m6021e662d9"
                     y="307.58401"
                     id="use81" />
                </g>
              </g>
              <g
                 id="text_5">
                <!-- 4 -->
                <g
                   transform="matrix(0.1,0,0,-0.1,351.28245,322.18244)"
                   id="g88">
                  <use
                     height="100%"
                     width="100%"
                     y="0"
                     x="0"
                     xlink:href="#DejaVuSans-52"
                     id="use86" />
                </g>
              </g>
            </g>
          </g>
          <g
             id="matplotlib.axis_2">
            <g
               id="ytick_1">
              <g
                 id="line2d_6">
                <defs
                   id="defs94">
                  <path
                     d="M 0,0 H -3.5"
                     id="path359"
                     style="stroke:#000000;stroke-width:0.8" />
                </defs>
                <g
                   id="g98">
                  <use
                     height="100%"
                     width="100%"
                     style="stroke:#000000;stroke-width:0.8"
                     x="57.599998"
                     xlink:href="#m8d5328635b"
                     y="307.58401"
                     id="use96" />
                </g>
              </g>
              <g
                 id="text_6">
                <!-- 0.00 -->
                <defs
                   id="defs102">
                  <path
                     d="M 10.6875,12.40625 H 21 V 0 H 10.6875 Z"
                     id="path365" />
                </defs>
                <g
                   transform="matrix(0.1,0,0,-0.1,28.334375,311.38322)"
                   id="g112">
                  <use
                     height="100%"
                     width="100%"
                     y="0"
                     x="0"
                     xlink:href="#DejaVuSans-48"
                     id="use104" />
                  <use
                     height="100%"
                     width="100%"
                     y="0"
                     x="63.623047"
                     xlink:href="#DejaVuSans-46"
                     id="use106" />
                  <use
                     height="100%"
                     width="100%"
                     y="0"
                     x="95.410156"
                     xlink:href="#DejaVuSans-48"
                     id="use108" />
                  <use
                     height="100%"
                     width="100%"
                     y="0"
                     x="159.0332"
                     xlink:href="#DejaVuSans-48"
                     id="use110" />
                </g>
              </g>
            </g>
            <g
               id="ytick_2">
              <g
                 id="line2d_7">
                <g
                   id="g118">
                  <use
                     height="100%"
                     width="100%"
                     style="stroke:#000000;stroke-width:0.8"
                     x="57.599998"
                     xlink:href="#m8d5328635b"
                     y="275.72623"
                     id="use116" />
                </g>
              </g>
              <g
                 id="text_7">
                <!-- 0.05 -->
                <defs
                   id="defs122">
                  <path
                     d="m 10.796875,72.90625 h 38.71875 v -8.3125 h -29.6875 V 46.734375 q 2.140625,0.734375 4.28125,1.09375 2.15625,0.359375 4.3125,0.359375 Q 40.625,48.1875 47.75,41.5 54.890625,34.8125 54.890625,23.390625 54.890625,11.625 47.5625,5.09375 40.234375,-1.421875 26.90625,-1.421875 q -4.59375,0 -9.359375,0.78125 -4.75,0.78125 -9.828125,2.34375 V 11.625 q 4.390625,-2.390625 9.078125,-3.5625 4.6875,-1.171875 9.90625,-1.171875 8.453125,0 13.375,4.4375 4.9375,4.4375 4.9375,12.0625 0,7.609375 -4.9375,12.046875 -4.921875,4.453125 -13.375,4.453125 -3.953125,0 -7.890625,-0.875 -3.921875,-0.875 -8.015625,-2.734375 z"
                     id="path378" />
                </defs>
                <g
                   transform="matrix(0.1,0,0,-0.1,28.334375,279.52544)"
                   id="g132">
                  <use
                     height="100%"
                     width="100%"
                     y="0"
                     x="0"
                     xlink:href="#DejaVuSans-48"
                     id="use124" />
                  <use
                     height="100%"
                     width="100%"
                     y="0"
                     x="63.623047"
                     xlink:href="#DejaVuSans-46"
                     id="use126" />
                  <use
                     height="100%"
                     width="100%"
                     y="0"
                     x="95.410156"
                     xlink:href="#DejaVuSans-48"
                     id="use128" />
                  <use
                     height="100%"
                     width="100%"
                     y="0"
                     x="159.0332"
                     xlink:href="#DejaVuSans-53"
                     id="use130" />
                </g>
              </g>
            </g>
            <g
               id="ytick_3">
              <g
                 id="line2d_8">
                <g
                   id="g138">
                  <use
                     height="100%"
                     width="100%"
                     style="stroke:#000000;stroke-width:0.8"
                     x="57.599998"
                     xlink:href="#m8d5328635b"
                     y="243.86845"
                     id="use136" />
                </g>
              </g>
              <g
                 id="text_8">
                <!-- 0.10 -->
                <defs
                   id="defs142">
                  <path
                     d="m 12.40625,8.296875 h 16.109375 v 55.625 L 10.984375,60.40625 v 8.984375 l 17.4375,3.515625 H 38.28125 V 8.296875 H 54.390625 V 0 H 12.40625 Z"
                     id="path391" />
                </defs>
                <g
                   transform="matrix(0.1,0,0,-0.1,28.334375,247.66767)"
                   id="g152">
                  <use
                     height="100%"
                     width="100%"
                     y="0"
                     x="0"
                     xlink:href="#DejaVuSans-48"
                     id="use144" />
                  <use
                     height="100%"
                     width="100%"
                     y="0"
                     x="63.623047"
                     xlink:href="#DejaVuSans-46"
                     id="use146" />
                  <use
                     height="100%"
                     width="100%"
                     y="0"
                     x="95.410156"
                     xlink:href="#DejaVuSans-49"
                     id="use148" />
                  <use
                     height="100%"
                     width="100%"
                     y="0"
                     x="159.0332"
                     xlink:href="#DejaVuSans-48"
                     id="use150" />
                </g>
              </g>
            </g>
            <g
               id="ytick_4">
              <g
                 id="line2d_9">
                <g
                   id="g158">
                  <use
                     height="100%"
                     width="100%"
                     style="stroke:#000000;stroke-width:0.8"
                     x="57.599998"
                     xlink:href="#m8d5328635b"
                     y="212.01067"
                     id="use156" />
                </g>
              </g>
              <g
                 id="text_9">
                <!-- 0.15 -->
                <g
                   transform="matrix(0.1,0,0,-0.1,28.334375,215.80989)"
                   id="g169">
                  <use
                     height="100%"
                     width="100%"
                     y="0"
                     x="0"
                     xlink:href="#DejaVuSans-48"
                     id="use161" />
                  <use
                     height="100%"
                     width="100%"
                     y="0"
                     x="63.623047"
                     xlink:href="#DejaVuSans-46"
                     id="use163" />
                  <use
                     height="100%"
                     width="100%"
                     y="0"
                     x="95.410156"
                     xlink:href="#DejaVuSans-49"
                     id="use165" />
                  <use
                     height="100%"
                     width="100%"
                     y="0"
                     x="159.0332"
                     xlink:href="#DejaVuSans-53"
                     id="use167" />
                </g>
              </g>
            </g>
            <g
               id="ytick_5">
              <g
                 id="line2d_10">
                <g
                   id="g175">
                  <use
                     height="100%"
                     width="100%"
                     style="stroke:#000000;stroke-width:0.8"
                     x="57.599998"
                     xlink:href="#m8d5328635b"
                     y="180.15289"
                     id="use173" />
                </g>
              </g>
              <g
                 id="text_10">
                <!-- 0.20 -->
                <g
                   transform="matrix(0.1,0,0,-0.1,28.334375,183.95211)"
                   id="g186">
                  <use
                     height="100%"
                     width="100%"
                     y="0"
                     x="0"
                     xlink:href="#DejaVuSans-48"
                     id="use178" />
                  <use
                     height="100%"
                     width="100%"
                     y="0"
                     x="63.623047"
                     xlink:href="#DejaVuSans-46"
                     id="use180" />
                  <use
                     height="100%"
                     width="100%"
                     y="0"
                     x="95.410156"
                     xlink:href="#DejaVuSans-50"
                     id="use182" />
                  <use
                     height="100%"
                     width="100%"
                     y="0"
                     x="159.0332"
                     xlink:href="#DejaVuSans-48"
                     id="use184" />
                </g>
              </g>
            </g>
            <g
               id="ytick_6">
              <g
                 id="line2d_11">
                <g
                   id="g192">
                  <use
                     height="100%"
                     width="100%"
                     style="stroke:#000000;stroke-width:0.8"
                     x="57.599998"
                     xlink:href="#m8d5328635b"
                     y="148.29512"
                     id="use190" />
                </g>
              </g>
              <g
                 id="text_11">
                <!-- 0.25 -->
                <g
                   transform="matrix(0.1,0,0,-0.1,28.334375,152.09434)"
                   id="g203">
                  <use
                     height="100%"
                     width="100%"
                     y="0"
                     x="0"
                     xlink:href="#DejaVuSans-48"
                     id="use195" />
                  <use
                     height="100%"
                     width="100%"
                     y="0"
                     x="63.623047"
                     xlink:href="#DejaVuSans-46"
                     id="use197" />
                  <use
                     height="100%"
                     width="100%"
                     y="0"
                     x="95.410156"
                     xlink:href="#DejaVuSans-50"
                     id="use199" />
                  <use
                     height="100%"
                     width="100%"
                     y="0"
                     x="159.0332"
                     xlink:href="#DejaVuSans-53"
                     id="use201" />
                </g>
              </g>
            </g>
            <g
               id="ytick_7">
              <g
                 id="line2d_12">
                <g
                   id="g209">
                  <use
                     height="100%"
                     width="100%"
                     style="stroke:#000000;stroke-width:0.8"
                     x="57.599998"
                     xlink:href="#m8d5328635b"
                     y="116.43734"
                     id="use207" />
                </g>
              </g>
              <g
                 id="text_12">
                <!-- 0.30 -->
                <defs
                   id="defs213">
                  <path
                     d="M 40.578125,39.3125 Q 47.65625,37.796875 51.625,33 q 3.984375,-4.78125 3.984375,-11.8125 0,-10.78125 -7.421875,-16.703125 -7.421875,-5.90625 -21.09375,-5.90625 -4.578125,0 -9.4375,0.90625 -4.859375,0.90625 -10.03125,2.71875 v 9.515625 q 4.09375,-2.390625 8.96875,-3.609375 4.890625,-1.21875 10.21875,-1.21875 9.265625,0 14.125,3.65625 4.859375,3.65625 4.859375,10.640625 0,6.453125 -4.515625,10.078125 -4.515625,3.640625 -12.5625,3.640625 h -8.5 v 8.109375 h 8.890625 q 7.265625,0 11.125,2.90625 3.859375,2.90625 3.859375,8.375 0,5.609375 -3.984375,8.609375 -3.96875,3.015625 -11.390625,3.015625 -4.0625,0 -8.703125,-0.890625 Q 15.375,64.15625 9.8125,62.3125 v 8.78125 q 5.625,1.5625 10.53125,2.34375 4.90625,0.78125 9.25,0.78125 11.234375,0 17.765625,-5.109375 6.546875,-5.09375 6.546875,-13.78125 0,-6.0625 -3.46875,-10.234375 -3.46875,-4.171875 -9.859375,-5.78125 z"
                     id="path434" />
                </defs>
                <g
                   transform="matrix(0.1,0,0,-0.1,28.334375,120.23656)"
                   id="g223">
                  <use
                     height="100%"
                     width="100%"
                     y="0"
                     x="0"
                     xlink:href="#DejaVuSans-48"
                     id="use215" />
                  <use
                     height="100%"
                     width="100%"
                     y="0"
                     x="63.623047"
                     xlink:href="#DejaVuSans-46"
                     id="use217" />
                  <use
                     height="100%"
                     width="100%"
                     y="0"
                     x="95.410156"
                     xlink:href="#DejaVuSans-51"
                     id="use219" />
                  <use
                     height="100%"
                     width="100%"
                     y="0"
                     x="159.0332"
                     xlink:href="#DejaVuSans-48"
                     id="use221" />
                </g>
              </g>
            </g>
            <g
               id="ytick_8">
              <g
                 id="line2d_13">
                <g
                   id="g229">
                  <use
                     height="100%"
                     width="100%"
                     style="stroke:#000000;stroke-width:0.8"
                     x="57.599998"
                     xlink:href="#m8d5328635b"
                     y="84.579567"
                     id="use227" />
                </g>
              </g>
              <g
                 id="text_13">
                <!-- 0.35 -->
                <g
                   transform="matrix(0.1,0,0,-0.1,28.334375,88.378783)"
                   id="g240">
                  <use
                     height="100%"
                     width="100%"
                     y="0"
                     x="0"
                     xlink:href="#DejaVuSans-48"
                     id="use232" />
                  <use
                     height="100%"
                     width="100%"
                     y="0"
                     x="63.623047"
                     xlink:href="#DejaVuSans-46"
                     id="use234" />
                  <use
                     height="100%"
                     width="100%"
                     y="0"
                     x="95.410156"
                     xlink:href="#DejaVuSans-51"
                     id="use236" />
                  <use
                     height="100%"
                     width="100%"
                     y="0"
                     x="159.0332"
                     xlink:href="#DejaVuSans-53"
                     id="use238" />
                </g>
              </g>
            </g>
            <g
               id="ytick_9">
              <g
                 id="line2d_14">
                <g
                   id="g246">
                  <use
                     height="100%"
                     width="100%"
                     style="stroke:#000000;stroke-width:0.8"
                     x="57.599998"
                     xlink:href="#m8d5328635b"
                     y="52.721786"
                     id="use244" />
                </g>
              </g>
              <g
                 id="text_14">
                <!-- 0.40 -->
                <g
                   transform="matrix(0.1,0,0,-0.1,28.334375,56.521006)"
                   id="g257">
                  <use
                     height="100%"
                     width="100%"
                     y="0"
                     x="0"
                     xlink:href="#DejaVuSans-48"
                     id="use249" />
                  <use
                     height="100%"
                     width="100%"
                     y="0"
                     x="63.623047"
                     xlink:href="#DejaVuSans-46"
                     id="use251" />
                  <use
                     height="100%"
                     width="100%"
                     y="0"
                     x="95.410156"
                     xlink:href="#DejaVuSans-52"
                     id="use253" />
                  <use
                     height="100%"
                     width="100%"
                     y="0"
                     x="159.0332"
                     xlink:href="#DejaVuSans-48"
                     id="use255" />
                </g>
              </g>
            </g>
          </g>
          <g
             id="line2d_15">
            <path
               clip-path="url(#pc1421dc5a0)"
               d="m 73.832727,307.58395 3.279339,-0.002 3.279339,-0.009 3.279339,-0.003 3.279339,-0.001 3.279338,0.001 3.279339,-0.008 3.279339,-0.0223 3.279341,-0.0417 3.27934,-0.0413 3.27934,-0.0177 3.27934,-0.0648 3.27933,-0.17379 3.27934,-0.18846 3.27934,-0.17308 3.27934,-0.32809 3.27934,-0.4083 3.27934,-0.51029 3.27934,-0.81422 3.27933,-0.91213 3.27934,-1.37906 3.27934,-1.8003 3.27934,-2.21709 3.27934,-2.62767 3.27934,-3.5993 3.27934,-4.39609 3.27934,-5.09156 3.27934,-5.73201 3.27933,-6.21254 3.27934,-7.7764 3.27934,-9.59439 3.27934,-10.30014 3.27934,-12.2866 3.27934,-13.25403 3.27934,-14.0182 3.27934,-14.27879 3.27934,-15.66375 3.27933,-16.08197 3.27934,-15.96719 3.27934,-15.27954 3.27934,-15.38142 3.27934,-13.729875 3.27934,-13.075513 3.27934,-11.816898 3.27934,-8.404704 3.27933,-6.799184 3.27934,-2.957616 3.27934,1.36255 3.27934,0.301265 3.27934,3.433871 3.27934,6.760082 3.27934,10.404009 3.27934,11.376227 3.27934,10.921102 3.27933,13.602054 3.27934,17.58519 3.27934,14.87071 3.27934,15.1573 3.27934,15.02482 3.27934,15.93697 3.27934,14.65002 3.27934,13.9095 3.27934,12.79474 3.27933,11.5448 3.27934,9.60353 3.27934,9.72545 3.27934,7.79975 3.27934,7.06562 3.27934,5.85775 3.27934,4.85724 3.27934,4.0957 3.27934,3.12862 3.27933,2.76559 3.27934,2.02401 3.27934,1.84629 3.27934,1.23426 3.27934,0.85554 3.27934,0.88764 3.27934,0.5947 3.27934,0.38292 3.27934,0.36383 3.27933,0.21867 3.27934,0.1449 3.27934,0.0968 3.27934,0.0878 3.27934,0.06 3.27934,0.0504 3.27934,-0.0114 3.27933,0.0328 3.27934,0.029 3.27934,0.002 3.27934,0.002 3.27934,-0.006 3.27934,0.002 3.27934,0.006 3.27934,10e-4 3.27934,-6.1e-4 3.27933,-0.003 3.27934,0.002 3.27934,0.002"
               style="fill:none;stroke:#1f77b4;stroke-width:1.5;stroke-linecap:square"
               id="path262" />
          </g>
          <g
             id="patch_3">
            <path
               d="M 57.6,307.584 V 41.472"
               style="fill:none;stroke:#000000;stroke-width:0.8;stroke-linecap:square;stroke-linejoin:miter"
               id="path265" />
          </g>
          <g
             id="patch_4">
            <path
               d="M 414.72,307.584 V 41.472"
               style="fill:none;stroke:#000000;stroke-width:0.8;stroke-linecap:square;stroke-linejoin:miter"
               id="path268" />
          </g>
          <g
             id="patch_5">
            <path
               d="M 57.6,307.584 H 414.72"
               style="fill:none;stroke:#000000;stroke-width:0.8;stroke-linecap:square;stroke-linejoin:miter"
               id="path271" />
          </g>
          <g
             id="patch_6">
            <path
               d="M 57.6,41.472 H 414.72"
               style="fill:none;stroke:#000000;stroke-width:0.8;stroke-linecap:square;stroke-linejoin:miter"
               id="path274" />
          </g>
        </g>
      </g>
    </g>
  </g>
</svg>
