<?xml version="1.0" encoding="utf-8" standalone="no"?>
<!DOCTYPE svg PUBLIC "-//W3C//DTD SVG 1.1//EN"
  "http://www.w3.org/Graphics/SVG/1.1/DTD/svg11.dtd">
<!-- Created with matplotlib (https://matplotlib.org/) -->
<svg height="345.6pt" version="1.1" viewBox="0 0 460.8 345.6" width="460.8pt" xmlns="http://www.w3.org/2000/svg" xmlns:xlink="http://www.w3.org/1999/xlink">
 <defs>
  <style type="text/css">
*{stroke-linecap:butt;stroke-linejoin:round;}
  </style>
 </defs>
 <g id="figure_1">
  <g id="patch_1">
   <path d="M 0 345.6 
L 460.8 345.6 
L 460.8 0 
L 0 0 
z
" style="fill:#ffffff;"/>
  </g>
  <g id="axes_1">
   <g id="patch_2">
    <path d="M 57.6 307.584 
L 414.72 307.584 
L 414.72 41.472 
L 57.6 41.472 
z
" style="fill:#ffffff;"/>
   </g>
   <g id="PathCollection_1">
    <defs>
     <path d="M 0 3 
C 0.795609 3 1.55874 2.683901 2.12132 2.12132 
C 2.683901 1.55874 3 0.795609 3 0 
C 3 -0.795609 2.683901 -1.55874 2.12132 -2.12132 
C 1.55874 -2.683901 0.795609 -3 0 -3 
C -0.795609 -3 -1.55874 -2.683901 -2.12132 -2.12132 
C -2.683901 -1.55874 -3 -0.795609 -3 0 
C -3 0.795609 -2.683901 1.55874 -2.12132 2.12132 
C -1.55874 2.683901 -0.795609 3 0 3 
z
" id="mae53e350c2" style="stroke:#1f77b4;"/>
    </defs>
    <g clip-path="url(#pbe2d7e1ed7)">
     <use style="fill:#1f77b4;stroke:#1f77b4;" x="158.36542" xlink:href="#mae53e350c2" y="245.178585"/>
     <use style="fill:#1f77b4;stroke:#1f77b4;" x="158.36542" xlink:href="#mae53e350c2" y="227.131577"/>
     <use style="fill:#1f77b4;stroke:#1f77b4;" x="185.317873" xlink:href="#mae53e350c2" y="227.131577"/>
     <use style="fill:#1f77b4;stroke:#1f77b4;" x="132.638079" xlink:href="#mae53e350c2" y="242.44601"/>
     <use style="fill:#1f77b4;stroke:#1f77b4;" x="165.716089" xlink:href="#mae53e350c2" y="221.4262"/>
     <use style="fill:#1f77b4;stroke:#1f77b4;" x="165.716089" xlink:href="#mae53e350c2" y="234.638652"/>
     <use style="fill:#1f77b4;stroke:#1f77b4;" x="165.716089" xlink:href="#mae53e350c2" y="219.864728"/>
     <use style="fill:#1f77b4;stroke:#1f77b4;" x="165.716089" xlink:href="#mae53e350c2" y="212.597879"/>
     <use style="fill:#1f77b4;stroke:#1f77b4;" x="159.590532" xlink:href="#mae53e350c2" y="182.839834"/>
     <use style="fill:#1f77b4;stroke:#1f77b4;" x="131.412967" xlink:href="#mae53e350c2" y="227.551973"/>
     <use style="fill:#1f77b4;stroke:#1f77b4;" x="131.412967" xlink:href="#mae53e350c2" y="224.579171"/>
     <use style="fill:#1f77b4;stroke:#1f77b4;" x="200.019211" xlink:href="#mae53e350c2" y="200.286276"/>
     <use style="fill:#1f77b4;stroke:#1f77b4;" x="200.019211" xlink:href="#mae53e350c2" y="199.475512"/>
     <use style="fill:#1f77b4;stroke:#1f77b4;" x="200.019211" xlink:href="#mae53e350c2" y="178.695928"/>
     <use style="fill:#1f77b4;stroke:#1f77b4;" x="255.149228" xlink:href="#mae53e350c2" y="141.490864"/>
     <use style="fill:#1f77b4;stroke:#1f77b4;" x="255.149228" xlink:href="#mae53e350c2" y="78.101121"/>
     <use style="fill:#1f77b4;stroke:#1f77b4;" x="255.149228" xlink:href="#mae53e350c2" y="104.736224"/>
     <use style="fill:#1f77b4;stroke:#1f77b4;" x="73.832727" xlink:href="#mae53e350c2" y="295.289813"/>
     <use style="fill:#1f77b4;stroke:#1f77b4;" x="109.360961" xlink:href="#mae53e350c2" y="288.419338"/>
     <use style="fill:#1f77b4;stroke:#1f77b4;" x="109.360961" xlink:href="#mae53e350c2" y="286.737753"/>
     <use style="fill:#1f77b4;stroke:#1f77b4;" x="109.360961" xlink:href="#mae53e350c2" y="292.76143"/>
     <use style="fill:#1f77b4;stroke:#1f77b4;" x="109.360961" xlink:href="#mae53e350c2" y="287.926874"/>
     <use style="fill:#1f77b4;stroke:#1f77b4;" x="119.161852" xlink:href="#mae53e350c2" y="278.437931"/>
     <use style="fill:#1f77b4;stroke:#1f77b4;" x="109.360961" xlink:href="#mae53e350c2" y="288.815712"/>
     <use style="fill:#1f77b4;stroke:#1f77b4;" x="109.360961" xlink:href="#mae53e350c2" y="286.035091"/>
     <use style="fill:#1f77b4;stroke:#1f77b4;" x="109.360961" xlink:href="#mae53e350c2" y="280.527901"/>
     <use style="fill:#1f77b4;stroke:#1f77b4;" x="119.161852" xlink:href="#mae53e350c2" y="274.828529"/>
     <use style="fill:#1f77b4;stroke:#1f77b4;" x="148.564528" xlink:href="#mae53e350c2" y="272.648475"/>
     <use style="fill:#1f77b4;stroke:#1f77b4;" x="190.218319" xlink:href="#mae53e350c2" y="248.367591"/>
     <use style="fill:#1f77b4;stroke:#1f77b4;" x="111.811184" xlink:href="#mae53e350c2" y="287.314297"/>
     <use style="fill:#1f77b4;stroke:#1f77b4;" x="111.811184" xlink:href="#mae53e350c2" y="285.056168"/>
     <use style="fill:#1f77b4;stroke:#1f77b4;" x="95.884734" xlink:href="#mae53e350c2" y="293.80041"/>
     <use style="fill:#1f77b4;stroke:#1f77b4;" x="111.811184" xlink:href="#mae53e350c2" y="287.014014"/>
     <use style="fill:#1f77b4;stroke:#1f77b4;" x="111.811184" xlink:href="#mae53e350c2" y="283.410618"/>
     <use style="fill:#1f77b4;stroke:#1f77b4;" x="111.811184" xlink:href="#mae53e350c2" y="282.413678"/>
     <use style="fill:#1f77b4;stroke:#1f77b4;" x="111.811184" xlink:href="#mae53e350c2" y="282.413678"/>
     <use style="fill:#1f77b4;stroke:#1f77b4;" x="133.86319" xlink:href="#mae53e350c2" y="278.810282"/>
     <use style="fill:#1f77b4;stroke:#1f77b4;" x="133.86319" xlink:href="#mae53e350c2" y="271.60349"/>
     <use style="fill:#1f77b4;stroke:#1f77b4;" x="133.86319" xlink:href="#mae53e350c2" y="273.104905"/>
     <use style="fill:#1f77b4;stroke:#1f77b4;" x="133.86319" xlink:href="#mae53e350c2" y="264.396698"/>
     <use style="fill:#1f77b4;stroke:#1f77b4;" x="133.86319" xlink:href="#mae53e350c2" y="248.481698"/>
     <use style="fill:#1f77b4;stroke:#1f77b4;" x="133.86319" xlink:href="#mae53e350c2" y="264.096415"/>
     <use style="fill:#1f77b4;stroke:#1f77b4;" x="135.088302" xlink:href="#mae53e350c2" y="285.476565"/>
     <use style="fill:#1f77b4;stroke:#1f77b4;" x="144.889194" xlink:href="#mae53e350c2" y="259.874436"/>
     <use style="fill:#1f77b4;stroke:#1f77b4;" x="315.179691" xlink:href="#mae53e350c2" y="132.54243"/>
     <use style="fill:#1f77b4;stroke:#1f77b4;" x="315.179691" xlink:href="#mae53e350c2" y="112.723752"/>
     <use style="fill:#1f77b4;stroke:#1f77b4;" x="398.487273" xlink:href="#mae53e350c2" y="110.021205"/>
     <use style="fill:#1f77b4;stroke:#1f77b4;" x="110.586072" xlink:href="#mae53e350c2" y="295.025564"/>
     <use style="fill:#1f77b4;stroke:#1f77b4;" x="110.586072" xlink:href="#mae53e350c2" y="289.62047"/>
     <use style="fill:#1f77b4;stroke:#1f77b4;" x="110.586072" xlink:href="#mae53e350c2" y="285.416508"/>
     <use style="fill:#1f77b4;stroke:#1f77b4;" x="110.586072" xlink:href="#mae53e350c2" y="286.017074"/>
     <use style="fill:#1f77b4;stroke:#1f77b4;" x="110.586072" xlink:href="#mae53e350c2" y="281.813112"/>
     <use style="fill:#1f77b4;stroke:#1f77b4;" x="84.858731" xlink:href="#mae53e350c2" y="260.493019"/>
     <use style="fill:#1f77b4;stroke:#1f77b4;" x="84.858731" xlink:href="#mae53e350c2" y="255.087925"/>
     <use style="fill:#1f77b4;stroke:#1f77b4;" x="84.858731" xlink:href="#mae53e350c2" y="244.277736"/>
     <use style="fill:#1f77b4;stroke:#1f77b4;" x="97.109846" xlink:href="#mae53e350c2" y="232.266416"/>
     <use style="fill:#1f77b4;stroke:#1f77b4;" x="148.564528" xlink:href="#mae53e350c2" y="273.104905"/>
     <use style="fill:#1f77b4;stroke:#1f77b4;" x="148.564528" xlink:href="#mae53e350c2" y="275.206886"/>
     <use style="fill:#1f77b4;stroke:#1f77b4;" x="148.564528" xlink:href="#mae53e350c2" y="262.595"/>
     <use style="fill:#1f77b4;stroke:#1f77b4;" x="148.564528" xlink:href="#mae53e350c2" y="264.696981"/>
     <use style="fill:#1f77b4;stroke:#1f77b4;" x="148.564528" xlink:href="#mae53e350c2" y="261.393868"/>
     <use style="fill:#1f77b4;stroke:#1f77b4;" x="148.564528" xlink:href="#mae53e350c2" y="258.691321"/>
     <use style="fill:#1f77b4;stroke:#1f77b4;" x="170.616535" xlink:href="#mae53e350c2" y="216.441502"/>
     <use style="fill:#1f77b4;stroke:#1f77b4;" x="163.265866" xlink:href="#mae53e350c2" y="216.05714"/>
     <use style="fill:#1f77b4;stroke:#1f77b4;" x="223.296329" xlink:href="#mae53e350c2" y="172.768342"/>
     <use style="fill:#1f77b4;stroke:#1f77b4;" x="223.296329" xlink:href="#mae53e350c2" y="156.577082"/>
     <use style="fill:#1f77b4;stroke:#1f77b4;" x="223.296329" xlink:href="#mae53e350c2" y="157.009489"/>
     <use style="fill:#1f77b4;stroke:#1f77b4;" x="223.296329" xlink:href="#mae53e350c2" y="136.446109"/>
     <use style="fill:#1f77b4;stroke:#1f77b4;" x="285.777015" xlink:href="#mae53e350c2" y="120.927484"/>
     <use style="fill:#1f77b4;stroke:#1f77b4;" x="285.777015" xlink:href="#mae53e350c2" y="115.690548"/>
     <use style="fill:#1f77b4;stroke:#1f77b4;" x="376.435266" xlink:href="#mae53e350c2" y="80.233131"/>
     <use style="fill:#1f77b4;stroke:#1f77b4;" x="371.53482" xlink:href="#mae53e350c2" y="53.568"/>
     <use style="fill:#1f77b4;stroke:#1f77b4;" x="170.616535" xlink:href="#mae53e350c2" y="227.11356"/>
     <use style="fill:#1f77b4;stroke:#1f77b4;" x="111.811184" xlink:href="#mae53e350c2" y="293.860466"/>
     <use style="fill:#1f77b4;stroke:#1f77b4;" x="111.811184" xlink:href="#mae53e350c2" y="289.055938"/>
     <use style="fill:#1f77b4;stroke:#1f77b4;" x="111.811184" xlink:href="#mae53e350c2" y="286.173221"/>
     <use style="fill:#1f77b4;stroke:#1f77b4;" x="119.161852" xlink:href="#mae53e350c2" y="280.047448"/>
     <use style="fill:#1f77b4;stroke:#1f77b4;" x="133.86319" xlink:href="#mae53e350c2" y="266.414599"/>
     <use style="fill:#1f77b4;stroke:#1f77b4;" x="148.564528" xlink:href="#mae53e350c2" y="275.182863"/>
     <use style="fill:#1f77b4;stroke:#1f77b4;" x="190.218319" xlink:href="#mae53e350c2" y="250.379487"/>
     <use style="fill:#1f77b4;stroke:#1f77b4;" x="190.218319" xlink:href="#mae53e350c2" y="236.926808"/>
     <use style="fill:#1f77b4;stroke:#1f77b4;" x="190.218319" xlink:href="#mae53e350c2" y="239.208959"/>
     <use style="fill:#1f77b4;stroke:#1f77b4;" x="148.564528" xlink:href="#mae53e350c2" y="284.25141"/>
     <use style="fill:#1f77b4;stroke:#1f77b4;" x="148.564528" xlink:href="#mae53e350c2" y="277.044618"/>
     <use style="fill:#1f77b4;stroke:#1f77b4;" x="133.86319" xlink:href="#mae53e350c2" y="270.498448"/>
     <use style="fill:#1f77b4;stroke:#1f77b4;" x="133.86319" xlink:href="#mae53e350c2" y="270.498448"/>
     <use style="fill:#1f77b4;stroke:#1f77b4;" x="117.936741" xlink:href="#mae53e350c2" y="293.199844"/>
     <use style="fill:#1f77b4;stroke:#1f77b4;" x="125.28741" xlink:href="#mae53e350c2" y="283.590787"/>
     <use style="fill:#1f77b4;stroke:#1f77b4;" x="117.936741" xlink:href="#mae53e350c2" y="286.293334"/>
     <use style="fill:#1f77b4;stroke:#1f77b4;" x="117.936741" xlink:href="#mae53e350c2" y="285.092202"/>
     <use style="fill:#1f77b4;stroke:#1f77b4;" x="117.936741" xlink:href="#mae53e350c2" y="282.089372"/>
     <use style="fill:#1f77b4;stroke:#1f77b4;" x="117.936741" xlink:href="#mae53e350c2" y="282.389655"/>
     <use style="fill:#1f77b4;stroke:#1f77b4;" x="117.936741" xlink:href="#mae53e350c2" y="279.386825"/>
     <use style="fill:#1f77b4;stroke:#1f77b4;" x="117.936741" xlink:href="#mae53e350c2" y="281.188523"/>
     <use style="fill:#1f77b4;stroke:#1f77b4;" x="117.936741" xlink:href="#mae53e350c2" y="278.185693"/>
     <use style="fill:#1f77b4;stroke:#1f77b4;" x="117.936741" xlink:href="#mae53e350c2" y="276.684278"/>
     <use style="fill:#1f77b4;stroke:#1f77b4;" x="146.114305" xlink:href="#mae53e350c2" y="272.480316"/>
     <use style="fill:#1f77b4;stroke:#1f77b4;" x="146.114305" xlink:href="#mae53e350c2" y="268.87692"/>
     <use style="fill:#1f77b4;stroke:#1f77b4;" x="220.846106" xlink:href="#mae53e350c2" y="245.154563"/>
     <use style="fill:#1f77b4;stroke:#1f77b4;" x="220.846106" xlink:href="#mae53e350c2" y="239.749469"/>
     <use style="fill:#1f77b4;stroke:#1f77b4;" x="220.846106" xlink:href="#mae53e350c2" y="245.154563"/>
     <use style="fill:#1f77b4;stroke:#1f77b4;" x="220.846106" xlink:href="#mae53e350c2" y="222.93362"/>
     <use style="fill:#1f77b4;stroke:#1f77b4;" x="220.846106" xlink:href="#mae53e350c2" y="207.91947"/>
     <use style="fill:#1f77b4;stroke:#1f77b4;" x="220.846106" xlink:href="#mae53e350c2" y="215.726828"/>
     <use style="fill:#1f77b4;stroke:#1f77b4;" x="146.114305" xlink:href="#mae53e350c2" y="254.757613"/>
     <use style="fill:#1f77b4;stroke:#1f77b4;" x="185.317873" xlink:href="#mae53e350c2" y="246.950255"/>
     <use style="fill:#1f77b4;stroke:#1f77b4;" x="146.114305" xlink:href="#mae53e350c2" y="251.514557"/>
     <use style="fill:#1f77b4;stroke:#1f77b4;" x="185.317873" xlink:href="#mae53e350c2" y="242.986519"/>
     <use style="fill:#1f77b4;stroke:#1f77b4;" x="146.114305" xlink:href="#mae53e350c2" y="232.656784"/>
     <use style="fill:#1f77b4;stroke:#1f77b4;" x="185.317873" xlink:href="#mae53e350c2" y="224.729313"/>
     <use style="fill:#1f77b4;stroke:#1f77b4;" x="146.114305" xlink:href="#mae53e350c2" y="225.960473"/>
     <use style="fill:#1f77b4;stroke:#1f77b4;" x="185.317873" xlink:href="#mae53e350c2" y="223.678322"/>
     <use style="fill:#1f77b4;stroke:#1f77b4;" x="146.114305" xlink:href="#mae53e350c2" y="226.350841"/>
     <use style="fill:#1f77b4;stroke:#1f77b4;" x="185.317873" xlink:href="#mae53e350c2" y="218.42337"/>
     <use style="fill:#1f77b4;stroke:#1f77b4;" x="163.265866" xlink:href="#mae53e350c2" y="217.222238"/>
     <use style="fill:#1f77b4;stroke:#1f77b4;" x="109.360961" xlink:href="#mae53e350c2" y="292.76143"/>
     <use style="fill:#1f77b4;stroke:#1f77b4;" x="119.161852" xlink:href="#mae53e350c2" y="278.437931"/>
     <use style="fill:#1f77b4;stroke:#1f77b4;" x="109.360961" xlink:href="#mae53e350c2" y="288.815712"/>
     <use style="fill:#1f77b4;stroke:#1f77b4;" x="109.360961" xlink:href="#mae53e350c2" y="286.035091"/>
     <use style="fill:#1f77b4;stroke:#1f77b4;" x="119.161852" xlink:href="#mae53e350c2" y="280.527901"/>
     <use style="fill:#1f77b4;stroke:#1f77b4;" x="148.564528" xlink:href="#mae53e350c2" y="272.648475"/>
     <use style="fill:#1f77b4;stroke:#1f77b4;" x="190.218319" xlink:href="#mae53e350c2" y="249.568723"/>
     <use style="fill:#1f77b4;stroke:#1f77b4;" x="184.092762" xlink:href="#mae53e350c2" y="193.992344"/>
     <use style="fill:#1f77b4;stroke:#1f77b4;" x="236.772556" xlink:href="#mae53e350c2" y="130.872857"/>
     <use style="fill:#1f77b4;stroke:#1f77b4;" x="236.772556" xlink:href="#mae53e350c2" y="121.864367"/>
     <use style="fill:#1f77b4;stroke:#1f77b4;" x="236.772556" xlink:href="#mae53e350c2" y="103.847386"/>
     <use style="fill:#1f77b4;stroke:#1f77b4;" x="160.815643" xlink:href="#mae53e350c2" y="270.402358"/>
     <use style="fill:#1f77b4;stroke:#1f77b4;" x="160.815643" xlink:href="#mae53e350c2" y="266.798962"/>
     <use style="fill:#1f77b4;stroke:#1f77b4;" x="147.339417" xlink:href="#mae53e350c2" y="255.057896"/>
     <use style="fill:#1f77b4;stroke:#1f77b4;" x="147.339417" xlink:href="#mae53e350c2" y="253.136085"/>
     <use style="fill:#1f77b4;stroke:#1f77b4;" x="147.339417" xlink:href="#mae53e350c2" y="235.899841"/>
     <use style="fill:#1f77b4;stroke:#1f77b4;" x="147.339417" xlink:href="#mae53e350c2" y="233.07718"/>
     <use style="fill:#1f77b4;stroke:#1f77b4;" x="147.339417" xlink:href="#mae53e350c2" y="217.222238"/>
     <use style="fill:#1f77b4;stroke:#1f77b4;" x="147.339417" xlink:href="#mae53e350c2" y="214.399577"/>
     <use style="fill:#1f77b4;stroke:#1f77b4;" x="117.936741" xlink:href="#mae53e350c2" y="295.488"/>
     <use style="fill:#1f77b4;stroke:#1f77b4;" x="131.412967" xlink:href="#mae53e350c2" y="283.867048"/>
     <use style="fill:#1f77b4;stroke:#1f77b4;" x="131.412967" xlink:href="#mae53e350c2" y="280.563935"/>
     <use style="fill:#1f77b4;stroke:#1f77b4;" x="131.412967" xlink:href="#mae53e350c2" y="283.428635"/>
     <use style="fill:#1f77b4;stroke:#1f77b4;" x="131.412967" xlink:href="#mae53e350c2" y="279.530961"/>
     <use style="fill:#1f77b4;stroke:#1f77b4;" x="131.412967" xlink:href="#mae53e350c2" y="266.408594"/>
     <use style="fill:#1f77b4;stroke:#1f77b4;" x="131.412967" xlink:href="#mae53e350c2" y="270.774709"/>
     <use style="fill:#1f77b4;stroke:#1f77b4;" x="131.412967" xlink:href="#mae53e350c2" y="258.607241"/>
     <use style="fill:#1f77b4;stroke:#1f77b4;" x="131.412967" xlink:href="#mae53e350c2" y="281.404727"/>
     <use style="fill:#1f77b4;stroke:#1f77b4;" x="131.412967" xlink:href="#mae53e350c2" y="264.979247"/>
     <use style="fill:#1f77b4;stroke:#1f77b4;" x="131.412967" xlink:href="#mae53e350c2" y="278.101614"/>
     <use style="fill:#1f77b4;stroke:#1f77b4;" x="131.412967" xlink:href="#mae53e350c2" y="255.994779"/>
     <use style="fill:#1f77b4;stroke:#1f77b4;" x="111.811184" xlink:href="#mae53e350c2" y="294.106698"/>
     <use style="fill:#1f77b4;stroke:#1f77b4;" x="111.811184" xlink:href="#mae53e350c2" y="288.161095"/>
     <use style="fill:#1f77b4;stroke:#1f77b4;" x="111.811184" xlink:href="#mae53e350c2" y="287.260246"/>
     <use style="fill:#1f77b4;stroke:#1f77b4;" x="111.811184" xlink:href="#mae53e350c2" y="284.677812"/>
     <use style="fill:#1f77b4;stroke:#1f77b4;" x="111.811184" xlink:href="#mae53e350c2" y="278.792265"/>
     <use style="fill:#1f77b4;stroke:#1f77b4;" x="111.811184" xlink:href="#mae53e350c2" y="273.507284"/>
     <use style="fill:#1f77b4;stroke:#1f77b4;" x="119.161852" xlink:href="#mae53e350c2" y="284.557699"/>
     <use style="fill:#1f77b4;stroke:#1f77b4;" x="119.161852" xlink:href="#mae53e350c2" y="282.996227"/>
     <use style="fill:#1f77b4;stroke:#1f77b4;" x="133.86319" xlink:href="#mae53e350c2" y="278.792265"/>
     <use style="fill:#1f77b4;stroke:#1f77b4;" x="133.86319" xlink:href="#mae53e350c2" y="279.452888"/>
     <use style="fill:#1f77b4;stroke:#1f77b4;" x="119.161852" xlink:href="#mae53e350c2" y="279.753171"/>
     <use style="fill:#1f77b4;stroke:#1f77b4;" x="119.161852" xlink:href="#mae53e350c2" y="276.029661"/>
     <use style="fill:#1f77b4;stroke:#1f77b4;" x="119.161852" xlink:href="#mae53e350c2" y="270.624567"/>
     <use style="fill:#1f77b4;stroke:#1f77b4;" x="119.161852" xlink:href="#mae53e350c2" y="277.831359"/>
     <use style="fill:#1f77b4;stroke:#1f77b4;" x="119.161852" xlink:href="#mae53e350c2" y="276.75034"/>
     <use style="fill:#1f77b4;stroke:#1f77b4;" x="119.161852" xlink:href="#mae53e350c2" y="270.384341"/>
     <use style="fill:#1f77b4;stroke:#1f77b4;" x="119.161852" xlink:href="#mae53e350c2" y="268.942982"/>
     <use style="fill:#1f77b4;stroke:#1f77b4;" x="177.967204" xlink:href="#mae53e350c2" y="275.483146"/>
     <use style="fill:#1f77b4;stroke:#1f77b4;" x="177.967204" xlink:href="#mae53e350c2" y="268.336411"/>
     <use style="fill:#1f77b4;stroke:#1f77b4;" x="177.967204" xlink:href="#mae53e350c2" y="266.23443"/>
     <use style="fill:#1f77b4;stroke:#1f77b4;" x="177.967204" xlink:href="#mae53e350c2" y="258.967581"/>
     <use style="fill:#1f77b4;stroke:#1f77b4;" x="177.967204" xlink:href="#mae53e350c2" y="256.8656"/>
     <use style="fill:#1f77b4;stroke:#1f77b4;" x="177.967204" xlink:href="#mae53e350c2" y="220.11096"/>
     <use style="fill:#1f77b4;stroke:#1f77b4;" x="148.564528" xlink:href="#mae53e350c2" y="272.486322"/>
     <use style="fill:#1f77b4;stroke:#1f77b4;" x="133.86319" xlink:href="#mae53e350c2" y="261.976417"/>
     <use style="fill:#1f77b4;stroke:#1f77b4;" x="148.564528" xlink:href="#mae53e350c2" y="266.240435"/>
     <use style="fill:#1f77b4;stroke:#1f77b4;" x="148.564528" xlink:href="#mae53e350c2" y="260.775285"/>
     <use style="fill:#1f77b4;stroke:#1f77b4;" x="148.564528" xlink:href="#mae53e350c2" y="258.673304"/>
     <use style="fill:#1f77b4;stroke:#1f77b4;" x="208.594991" xlink:href="#mae53e350c2" y="226.783248"/>
     <use style="fill:#1f77b4;stroke:#1f77b4;" x="208.594991" xlink:href="#mae53e350c2" y="230.146418"/>
     <use style="fill:#1f77b4;stroke:#1f77b4;" x="208.594991" xlink:href="#mae53e350c2" y="231.996161"/>
     <use style="fill:#1f77b4;stroke:#1f77b4;" x="196.343877" xlink:href="#mae53e350c2" y="231.635822"/>
     <use style="fill:#1f77b4;stroke:#1f77b4;" x="117.936741" xlink:href="#mae53e350c2" y="279.530961"/>
     <use style="fill:#1f77b4;stroke:#1f77b4;" x="132.638079" xlink:href="#mae53e350c2" y="278.329829"/>
     <use style="fill:#1f77b4;stroke:#1f77b4;" x="117.936741" xlink:href="#mae53e350c2" y="278.209716"/>
     <use style="fill:#1f77b4;stroke:#1f77b4;" x="132.638079" xlink:href="#mae53e350c2" y="277.008584"/>
     <use style="fill:#1f77b4;stroke:#1f77b4;" x="132.638079" xlink:href="#mae53e350c2" y="275.206886"/>
     <use style="fill:#1f77b4;stroke:#1f77b4;" x="117.936741" xlink:href="#mae53e350c2" y="269.201226"/>
     <use style="fill:#1f77b4;stroke:#1f77b4;" x="132.638079" xlink:href="#mae53e350c2" y="266.198396"/>
     <use style="fill:#1f77b4;stroke:#1f77b4;" x="132.638079" xlink:href="#mae53e350c2" y="256.58934"/>
     <use style="fill:#1f77b4;stroke:#1f77b4;" x="132.638079" xlink:href="#mae53e350c2" y="266.288481"/>
     <use style="fill:#1f77b4;stroke:#1f77b4;" x="165.716089" xlink:href="#mae53e350c2" y="246.379717"/>
     <use style="fill:#1f77b4;stroke:#1f77b4;" x="117.936741" xlink:href="#mae53e350c2" y="243.076604"/>
     <use style="fill:#1f77b4;stroke:#1f77b4;" x="132.638079" xlink:href="#mae53e350c2" y="252.415406"/>
     <use style="fill:#1f77b4;stroke:#1f77b4;" x="171.841647" xlink:href="#mae53e350c2" y="248.511727"/>
     <use style="fill:#1f77b4;stroke:#1f77b4;" x="171.841647" xlink:href="#mae53e350c2" y="245.659038"/>
     <use style="fill:#1f77b4;stroke:#1f77b4;" x="171.841647" xlink:href="#mae53e350c2" y="230.224492"/>
     <use style="fill:#1f77b4;stroke:#1f77b4;" x="171.841647" xlink:href="#mae53e350c2" y="227.041492"/>
     <use style="fill:#1f77b4;stroke:#1f77b4;" x="158.36542" xlink:href="#mae53e350c2" y="215.600709"/>
     <use style="fill:#1f77b4;stroke:#1f77b4;" x="158.36542" xlink:href="#mae53e350c2" y="212.41771"/>
     <use style="fill:#1f77b4;stroke:#1f77b4;" x="171.841647" xlink:href="#mae53e350c2" y="225.059624"/>
     <use style="fill:#1f77b4;stroke:#1f77b4;" x="171.841647" xlink:href="#mae53e350c2" y="211.847172"/>
     <use style="fill:#1f77b4;stroke:#1f77b4;" x="211.045214" xlink:href="#mae53e350c2" y="197.193361"/>
     <use style="fill:#1f77b4;stroke:#1f77b4;" x="176.742093" xlink:href="#mae53e350c2" y="191.277786"/>
     <use style="fill:#1f77b4;stroke:#1f77b4;" x="171.841647" xlink:href="#mae53e350c2" y="190.346909"/>
    </g>
   </g>
   <g id="matplotlib.axis_1">
    <g id="xtick_1">
     <g id="line2d_1">
      <path clip-path="url(#pbe2d7e1ed7)" d="M 60.356501 307.584 
L 60.356501 41.472 
" style="fill:none;stroke:#b0b0b0;stroke-linecap:square;stroke-width:0.8;"/>
     </g>
     <g id="line2d_2">
      <defs>
       <path d="M 0 0 
L 0 3.5 
" id="m486e1a6378" style="stroke:#000000;stroke-width:0.8;"/>
      </defs>
      <g>
       <use style="stroke:#000000;stroke-width:0.8;" x="60.356501" xlink:href="#m486e1a6378" y="307.584"/>
      </g>
     </g>
     <g id="text_1">
      <!-- 50 -->
      <defs>
       <path d="M 10.796875 72.90625 
L 49.515625 72.90625 
L 49.515625 64.59375 
L 19.828125 64.59375 
L 19.828125 46.734375 
Q 21.96875 47.46875 24.109375 47.828125 
Q 26.265625 48.1875 28.421875 48.1875 
Q 40.625 48.1875 47.75 41.5 
Q 54.890625 34.8125 54.890625 23.390625 
Q 54.890625 11.625 47.5625 5.09375 
Q 40.234375 -1.421875 26.90625 -1.421875 
Q 22.3125 -1.421875 17.546875 -0.640625 
Q 12.796875 0.140625 7.71875 1.703125 
L 7.71875 11.625 
Q 12.109375 9.234375 16.796875 8.0625 
Q 21.484375 6.890625 26.703125 6.890625 
Q 35.15625 6.890625 40.078125 11.328125 
Q 45.015625 15.765625 45.015625 23.390625 
Q 45.015625 31 40.078125 35.4375 
Q 35.15625 39.890625 26.703125 39.890625 
Q 22.75 39.890625 18.8125 39.015625 
Q 14.890625 38.140625 10.796875 36.28125 
z
" id="DejaVuSans-53"/>
       <path d="M 31.78125 66.40625 
Q 24.171875 66.40625 20.328125 58.90625 
Q 16.5 51.421875 16.5 36.375 
Q 16.5 21.390625 20.328125 13.890625 
Q 24.171875 6.390625 31.78125 6.390625 
Q 39.453125 6.390625 43.28125 13.890625 
Q 47.125 21.390625 47.125 36.375 
Q 47.125 51.421875 43.28125 58.90625 
Q 39.453125 66.40625 31.78125 66.40625 
z
M 31.78125 74.21875 
Q 44.046875 74.21875 50.515625 64.515625 
Q 56.984375 54.828125 56.984375 36.375 
Q 56.984375 17.96875 50.515625 8.265625 
Q 44.046875 -1.421875 31.78125 -1.421875 
Q 19.53125 -1.421875 13.0625 8.265625 
Q 6.59375 17.96875 6.59375 36.375 
Q 6.59375 54.828125 13.0625 64.515625 
Q 19.53125 74.21875 31.78125 74.21875 
z
" id="DejaVuSans-48"/>
      </defs>
      <g transform="translate(53.994001 322.182437)scale(0.1 -0.1)">
       <use xlink:href="#DejaVuSans-53"/>
       <use x="63.623047" xlink:href="#DejaVuSans-48"/>
      </g>
     </g>
    </g>
    <g id="xtick_2">
     <g id="line2d_3">
      <path clip-path="url(#pbe2d7e1ed7)" d="M 121.612075 307.584 
L 121.612075 41.472 
" style="fill:none;stroke:#b0b0b0;stroke-linecap:square;stroke-width:0.8;"/>
     </g>
     <g id="line2d_4">
      <g>
       <use style="stroke:#000000;stroke-width:0.8;" x="121.612075" xlink:href="#m486e1a6378" y="307.584"/>
      </g>
     </g>
     <g id="text_2">
      <!-- 100 -->
      <defs>
       <path d="M 12.40625 8.296875 
L 28.515625 8.296875 
L 28.515625 63.921875 
L 10.984375 60.40625 
L 10.984375 69.390625 
L 28.421875 72.90625 
L 38.28125 72.90625 
L 38.28125 8.296875 
L 54.390625 8.296875 
L 54.390625 0 
L 12.40625 0 
z
" id="DejaVuSans-49"/>
      </defs>
      <g transform="translate(112.068325 322.182437)scale(0.1 -0.1)">
       <use xlink:href="#DejaVuSans-49"/>
       <use x="63.623047" xlink:href="#DejaVuSans-48"/>
       <use x="127.246094" xlink:href="#DejaVuSans-48"/>
      </g>
     </g>
    </g>
    <g id="xtick_3">
     <g id="line2d_5">
      <path clip-path="url(#pbe2d7e1ed7)" d="M 182.86765 307.584 
L 182.86765 41.472 
" style="fill:none;stroke:#b0b0b0;stroke-linecap:square;stroke-width:0.8;"/>
     </g>
     <g id="line2d_6">
      <g>
       <use style="stroke:#000000;stroke-width:0.8;" x="182.86765" xlink:href="#m486e1a6378" y="307.584"/>
      </g>
     </g>
     <g id="text_3">
      <!-- 150 -->
      <g transform="translate(173.3239 322.182437)scale(0.1 -0.1)">
       <use xlink:href="#DejaVuSans-49"/>
       <use x="63.623047" xlink:href="#DejaVuSans-53"/>
       <use x="127.246094" xlink:href="#DejaVuSans-48"/>
      </g>
     </g>
    </g>
    <g id="xtick_4">
     <g id="line2d_7">
      <path clip-path="url(#pbe2d7e1ed7)" d="M 244.123225 307.584 
L 244.123225 41.472 
" style="fill:none;stroke:#b0b0b0;stroke-linecap:square;stroke-width:0.8;"/>
     </g>
     <g id="line2d_8">
      <g>
       <use style="stroke:#000000;stroke-width:0.8;" x="244.123225" xlink:href="#m486e1a6378" y="307.584"/>
      </g>
     </g>
     <g id="text_4">
      <!-- 200 -->
      <defs>
       <path d="M 19.1875 8.296875 
L 53.609375 8.296875 
L 53.609375 0 
L 7.328125 0 
L 7.328125 8.296875 
Q 12.9375 14.109375 22.625 23.890625 
Q 32.328125 33.6875 34.8125 36.53125 
Q 39.546875 41.84375 41.421875 45.53125 
Q 43.3125 49.21875 43.3125 52.78125 
Q 43.3125 58.59375 39.234375 62.25 
Q 35.15625 65.921875 28.609375 65.921875 
Q 23.96875 65.921875 18.8125 64.3125 
Q 13.671875 62.703125 7.8125 59.421875 
L 7.8125 69.390625 
Q 13.765625 71.78125 18.9375 73 
Q 24.125 74.21875 28.421875 74.21875 
Q 39.75 74.21875 46.484375 68.546875 
Q 53.21875 62.890625 53.21875 53.421875 
Q 53.21875 48.921875 51.53125 44.890625 
Q 49.859375 40.875 45.40625 35.40625 
Q 44.1875 33.984375 37.640625 27.21875 
Q 31.109375 20.453125 19.1875 8.296875 
z
" id="DejaVuSans-50"/>
      </defs>
      <g transform="translate(234.579475 322.182437)scale(0.1 -0.1)">
       <use xlink:href="#DejaVuSans-50"/>
       <use x="63.623047" xlink:href="#DejaVuSans-48"/>
       <use x="127.246094" xlink:href="#DejaVuSans-48"/>
      </g>
     </g>
    </g>
    <g id="xtick_5">
     <g id="line2d_9">
      <path clip-path="url(#pbe2d7e1ed7)" d="M 305.378799 307.584 
L 305.378799 41.472 
" style="fill:none;stroke:#b0b0b0;stroke-linecap:square;stroke-width:0.8;"/>
     </g>
     <g id="line2d_10">
      <g>
       <use style="stroke:#000000;stroke-width:0.8;" x="305.378799" xlink:href="#m486e1a6378" y="307.584"/>
      </g>
     </g>
     <g id="text_5">
      <!-- 250 -->
      <g transform="translate(295.835049 322.182437)scale(0.1 -0.1)">
       <use xlink:href="#DejaVuSans-50"/>
       <use x="63.623047" xlink:href="#DejaVuSans-53"/>
       <use x="127.246094" xlink:href="#DejaVuSans-48"/>
      </g>
     </g>
    </g>
    <g id="xtick_6">
     <g id="line2d_11">
      <path clip-path="url(#pbe2d7e1ed7)" d="M 366.634374 307.584 
L 366.634374 41.472 
" style="fill:none;stroke:#b0b0b0;stroke-linecap:square;stroke-width:0.8;"/>
     </g>
     <g id="line2d_12">
      <g>
       <use style="stroke:#000000;stroke-width:0.8;" x="366.634374" xlink:href="#m486e1a6378" y="307.584"/>
      </g>
     </g>
     <g id="text_6">
      <!-- 300 -->
      <defs>
       <path d="M 40.578125 39.3125 
Q 47.65625 37.796875 51.625 33 
Q 55.609375 28.21875 55.609375 21.1875 
Q 55.609375 10.40625 48.1875 4.484375 
Q 40.765625 -1.421875 27.09375 -1.421875 
Q 22.515625 -1.421875 17.65625 -0.515625 
Q 12.796875 0.390625 7.625 2.203125 
L 7.625 11.71875 
Q 11.71875 9.328125 16.59375 8.109375 
Q 21.484375 6.890625 26.8125 6.890625 
Q 36.078125 6.890625 40.9375 10.546875 
Q 45.796875 14.203125 45.796875 21.1875 
Q 45.796875 27.640625 41.28125 31.265625 
Q 36.765625 34.90625 28.71875 34.90625 
L 20.21875 34.90625 
L 20.21875 43.015625 
L 29.109375 43.015625 
Q 36.375 43.015625 40.234375 45.921875 
Q 44.09375 48.828125 44.09375 54.296875 
Q 44.09375 59.90625 40.109375 62.90625 
Q 36.140625 65.921875 28.71875 65.921875 
Q 24.65625 65.921875 20.015625 65.03125 
Q 15.375 64.15625 9.8125 62.3125 
L 9.8125 71.09375 
Q 15.4375 72.65625 20.34375 73.4375 
Q 25.25 74.21875 29.59375 74.21875 
Q 40.828125 74.21875 47.359375 69.109375 
Q 53.90625 64.015625 53.90625 55.328125 
Q 53.90625 49.265625 50.4375 45.09375 
Q 46.96875 40.921875 40.578125 39.3125 
z
" id="DejaVuSans-51"/>
      </defs>
      <g transform="translate(357.090624 322.182437)scale(0.1 -0.1)">
       <use xlink:href="#DejaVuSans-51"/>
       <use x="63.623047" xlink:href="#DejaVuSans-48"/>
       <use x="127.246094" xlink:href="#DejaVuSans-48"/>
      </g>
     </g>
    </g>
    <g id="text_7">
     <!-- Engine Size -->
     <defs>
      <path d="M 9.8125 72.90625 
L 55.90625 72.90625 
L 55.90625 64.59375 
L 19.671875 64.59375 
L 19.671875 43.015625 
L 54.390625 43.015625 
L 54.390625 34.71875 
L 19.671875 34.71875 
L 19.671875 8.296875 
L 56.78125 8.296875 
L 56.78125 0 
L 9.8125 0 
z
" id="DejaVuSans-69"/>
      <path d="M 54.890625 33.015625 
L 54.890625 0 
L 45.90625 0 
L 45.90625 32.71875 
Q 45.90625 40.484375 42.875 44.328125 
Q 39.84375 48.1875 33.796875 48.1875 
Q 26.515625 48.1875 22.3125 43.546875 
Q 18.109375 38.921875 18.109375 30.90625 
L 18.109375 0 
L 9.078125 0 
L 9.078125 54.6875 
L 18.109375 54.6875 
L 18.109375 46.1875 
Q 21.34375 51.125 25.703125 53.5625 
Q 30.078125 56 35.796875 56 
Q 45.21875 56 50.046875 50.171875 
Q 54.890625 44.34375 54.890625 33.015625 
z
" id="DejaVuSans-110"/>
      <path d="M 45.40625 27.984375 
Q 45.40625 37.75 41.375 43.109375 
Q 37.359375 48.484375 30.078125 48.484375 
Q 22.859375 48.484375 18.828125 43.109375 
Q 14.796875 37.75 14.796875 27.984375 
Q 14.796875 18.265625 18.828125 12.890625 
Q 22.859375 7.515625 30.078125 7.515625 
Q 37.359375 7.515625 41.375 12.890625 
Q 45.40625 18.265625 45.40625 27.984375 
z
M 54.390625 6.78125 
Q 54.390625 -7.171875 48.1875 -13.984375 
Q 42 -20.796875 29.203125 -20.796875 
Q 24.46875 -20.796875 20.265625 -20.09375 
Q 16.0625 -19.390625 12.109375 -17.921875 
L 12.109375 -9.1875 
Q 16.0625 -11.328125 19.921875 -12.34375 
Q 23.78125 -13.375 27.78125 -13.375 
Q 36.625 -13.375 41.015625 -8.765625 
Q 45.40625 -4.15625 45.40625 5.171875 
L 45.40625 9.625 
Q 42.625 4.78125 38.28125 2.390625 
Q 33.9375 0 27.875 0 
Q 17.828125 0 11.671875 7.65625 
Q 5.515625 15.328125 5.515625 27.984375 
Q 5.515625 40.671875 11.671875 48.328125 
Q 17.828125 56 27.875 56 
Q 33.9375 56 38.28125 53.609375 
Q 42.625 51.21875 45.40625 46.390625 
L 45.40625 54.6875 
L 54.390625 54.6875 
z
" id="DejaVuSans-103"/>
      <path d="M 9.421875 54.6875 
L 18.40625 54.6875 
L 18.40625 0 
L 9.421875 0 
z
M 9.421875 75.984375 
L 18.40625 75.984375 
L 18.40625 64.59375 
L 9.421875 64.59375 
z
" id="DejaVuSans-105"/>
      <path d="M 56.203125 29.59375 
L 56.203125 25.203125 
L 14.890625 25.203125 
Q 15.484375 15.921875 20.484375 11.0625 
Q 25.484375 6.203125 34.421875 6.203125 
Q 39.59375 6.203125 44.453125 7.46875 
Q 49.3125 8.734375 54.109375 11.28125 
L 54.109375 2.78125 
Q 49.265625 0.734375 44.1875 -0.34375 
Q 39.109375 -1.421875 33.890625 -1.421875 
Q 20.796875 -1.421875 13.15625 6.1875 
Q 5.515625 13.8125 5.515625 26.8125 
Q 5.515625 40.234375 12.765625 48.109375 
Q 20.015625 56 32.328125 56 
Q 43.359375 56 49.78125 48.890625 
Q 56.203125 41.796875 56.203125 29.59375 
z
M 47.21875 32.234375 
Q 47.125 39.59375 43.09375 43.984375 
Q 39.0625 48.390625 32.421875 48.390625 
Q 24.90625 48.390625 20.390625 44.140625 
Q 15.875 39.890625 15.1875 32.171875 
z
" id="DejaVuSans-101"/>
      <path id="DejaVuSans-32"/>
      <path d="M 53.515625 70.515625 
L 53.515625 60.890625 
Q 47.90625 63.578125 42.921875 64.890625 
Q 37.9375 66.21875 33.296875 66.21875 
Q 25.25 66.21875 20.875 63.09375 
Q 16.5 59.96875 16.5 54.203125 
Q 16.5 49.359375 19.40625 46.890625 
Q 22.3125 44.4375 30.421875 42.921875 
L 36.375 41.703125 
Q 47.40625 39.59375 52.65625 34.296875 
Q 57.90625 29 57.90625 20.125 
Q 57.90625 9.515625 50.796875 4.046875 
Q 43.703125 -1.421875 29.984375 -1.421875 
Q 24.8125 -1.421875 18.96875 -0.25 
Q 13.140625 0.921875 6.890625 3.21875 
L 6.890625 13.375 
Q 12.890625 10.015625 18.65625 8.296875 
Q 24.421875 6.59375 29.984375 6.59375 
Q 38.421875 6.59375 43.015625 9.90625 
Q 47.609375 13.234375 47.609375 19.390625 
Q 47.609375 24.75 44.3125 27.78125 
Q 41.015625 30.8125 33.5 32.328125 
L 27.484375 33.5 
Q 16.453125 35.6875 11.515625 40.375 
Q 6.59375 45.0625 6.59375 53.421875 
Q 6.59375 63.09375 13.40625 68.65625 
Q 20.21875 74.21875 32.171875 74.21875 
Q 37.3125 74.21875 42.625 73.28125 
Q 47.953125 72.359375 53.515625 70.515625 
z
" id="DejaVuSans-83"/>
      <path d="M 5.515625 54.6875 
L 48.1875 54.6875 
L 48.1875 46.484375 
L 14.40625 7.171875 
L 48.1875 7.171875 
L 48.1875 0 
L 4.296875 0 
L 4.296875 8.203125 
L 38.09375 47.515625 
L 5.515625 47.515625 
z
" id="DejaVuSans-122"/>
     </defs>
     <g transform="translate(207.170156 335.860562)scale(0.1 -0.1)">
      <use xlink:href="#DejaVuSans-69"/>
      <use x="63.183594" xlink:href="#DejaVuSans-110"/>
      <use x="126.5625" xlink:href="#DejaVuSans-103"/>
      <use x="190.039062" xlink:href="#DejaVuSans-105"/>
      <use x="217.822266" xlink:href="#DejaVuSans-110"/>
      <use x="281.201172" xlink:href="#DejaVuSans-101"/>
      <use x="342.724609" xlink:href="#DejaVuSans-32"/>
      <use x="374.511719" xlink:href="#DejaVuSans-83"/>
      <use x="437.988281" xlink:href="#DejaVuSans-105"/>
      <use x="465.771484" xlink:href="#DejaVuSans-122"/>
      <use x="518.261719" xlink:href="#DejaVuSans-101"/>
     </g>
    </g>
   </g>
   <g id="matplotlib.axis_2">
    <g id="ytick_1">
     <g id="line2d_13">
      <path clip-path="url(#pbe2d7e1ed7)" d="M 57.6 296.196668 
L 414.72 296.196668 
" style="fill:none;stroke:#b0b0b0;stroke-linecap:square;stroke-width:0.8;"/>
     </g>
     <g id="line2d_14">
      <defs>
       <path d="M 0 0 
L -3.5 0 
" id="m73de39fedd" style="stroke:#000000;stroke-width:0.8;"/>
      </defs>
      <g>
       <use style="stroke:#000000;stroke-width:0.8;" x="57.6" xlink:href="#m73de39fedd" y="296.196668"/>
      </g>
     </g>
     <g id="text_8">
      <!-- 5000 -->
      <g transform="translate(25.15 299.995887)scale(0.1 -0.1)">
       <use xlink:href="#DejaVuSans-53"/>
       <use x="63.623047" xlink:href="#DejaVuSans-48"/>
       <use x="127.246094" xlink:href="#DejaVuSans-48"/>
       <use x="190.869141" xlink:href="#DejaVuSans-48"/>
      </g>
     </g>
    </g>
    <g id="ytick_2">
     <g id="line2d_15">
      <path clip-path="url(#pbe2d7e1ed7)" d="M 57.6 266.168367 
L 414.72 266.168367 
" style="fill:none;stroke:#b0b0b0;stroke-linecap:square;stroke-width:0.8;"/>
     </g>
     <g id="line2d_16">
      <g>
       <use style="stroke:#000000;stroke-width:0.8;" x="57.6" xlink:href="#m73de39fedd" y="266.168367"/>
      </g>
     </g>
     <g id="text_9">
      <!-- 10000 -->
      <g transform="translate(18.7875 269.967586)scale(0.1 -0.1)">
       <use xlink:href="#DejaVuSans-49"/>
       <use x="63.623047" xlink:href="#DejaVuSans-48"/>
       <use x="127.246094" xlink:href="#DejaVuSans-48"/>
       <use x="190.869141" xlink:href="#DejaVuSans-48"/>
       <use x="254.492188" xlink:href="#DejaVuSans-48"/>
      </g>
     </g>
    </g>
    <g id="ytick_3">
     <g id="line2d_17">
      <path clip-path="url(#pbe2d7e1ed7)" d="M 57.6 236.140067 
L 414.72 236.140067 
" style="fill:none;stroke:#b0b0b0;stroke-linecap:square;stroke-width:0.8;"/>
     </g>
     <g id="line2d_18">
      <g>
       <use style="stroke:#000000;stroke-width:0.8;" x="57.6" xlink:href="#m73de39fedd" y="236.140067"/>
      </g>
     </g>
     <g id="text_10">
      <!-- 15000 -->
      <g transform="translate(18.7875 239.939286)scale(0.1 -0.1)">
       <use xlink:href="#DejaVuSans-49"/>
       <use x="63.623047" xlink:href="#DejaVuSans-53"/>
       <use x="127.246094" xlink:href="#DejaVuSans-48"/>
       <use x="190.869141" xlink:href="#DejaVuSans-48"/>
       <use x="254.492188" xlink:href="#DejaVuSans-48"/>
      </g>
     </g>
    </g>
    <g id="ytick_4">
     <g id="line2d_19">
      <path clip-path="url(#pbe2d7e1ed7)" d="M 57.6 206.111766 
L 414.72 206.111766 
" style="fill:none;stroke:#b0b0b0;stroke-linecap:square;stroke-width:0.8;"/>
     </g>
     <g id="line2d_20">
      <g>
       <use style="stroke:#000000;stroke-width:0.8;" x="57.6" xlink:href="#m73de39fedd" y="206.111766"/>
      </g>
     </g>
     <g id="text_11">
      <!-- 20000 -->
      <g transform="translate(18.7875 209.910985)scale(0.1 -0.1)">
       <use xlink:href="#DejaVuSans-50"/>
       <use x="63.623047" xlink:href="#DejaVuSans-48"/>
       <use x="127.246094" xlink:href="#DejaVuSans-48"/>
       <use x="190.869141" xlink:href="#DejaVuSans-48"/>
       <use x="254.492188" xlink:href="#DejaVuSans-48"/>
      </g>
     </g>
    </g>
    <g id="ytick_5">
     <g id="line2d_21">
      <path clip-path="url(#pbe2d7e1ed7)" d="M 57.6 176.083466 
L 414.72 176.083466 
" style="fill:none;stroke:#b0b0b0;stroke-linecap:square;stroke-width:0.8;"/>
     </g>
     <g id="line2d_22">
      <g>
       <use style="stroke:#000000;stroke-width:0.8;" x="57.6" xlink:href="#m73de39fedd" y="176.083466"/>
      </g>
     </g>
     <g id="text_12">
      <!-- 25000 -->
      <g transform="translate(18.7875 179.882685)scale(0.1 -0.1)">
       <use xlink:href="#DejaVuSans-50"/>
       <use x="63.623047" xlink:href="#DejaVuSans-53"/>
       <use x="127.246094" xlink:href="#DejaVuSans-48"/>
       <use x="190.869141" xlink:href="#DejaVuSans-48"/>
       <use x="254.492188" xlink:href="#DejaVuSans-48"/>
      </g>
     </g>
    </g>
    <g id="ytick_6">
     <g id="line2d_23">
      <path clip-path="url(#pbe2d7e1ed7)" d="M 57.6 146.055165 
L 414.72 146.055165 
" style="fill:none;stroke:#b0b0b0;stroke-linecap:square;stroke-width:0.8;"/>
     </g>
     <g id="line2d_24">
      <g>
       <use style="stroke:#000000;stroke-width:0.8;" x="57.6" xlink:href="#m73de39fedd" y="146.055165"/>
      </g>
     </g>
     <g id="text_13">
      <!-- 30000 -->
      <g transform="translate(18.7875 149.854384)scale(0.1 -0.1)">
       <use xlink:href="#DejaVuSans-51"/>
       <use x="63.623047" xlink:href="#DejaVuSans-48"/>
       <use x="127.246094" xlink:href="#DejaVuSans-48"/>
       <use x="190.869141" xlink:href="#DejaVuSans-48"/>
       <use x="254.492188" xlink:href="#DejaVuSans-48"/>
      </g>
     </g>
    </g>
    <g id="ytick_7">
     <g id="line2d_25">
      <path clip-path="url(#pbe2d7e1ed7)" d="M 57.6 116.026865 
L 414.72 116.026865 
" style="fill:none;stroke:#b0b0b0;stroke-linecap:square;stroke-width:0.8;"/>
     </g>
     <g id="line2d_26">
      <g>
       <use style="stroke:#000000;stroke-width:0.8;" x="57.6" xlink:href="#m73de39fedd" y="116.026865"/>
      </g>
     </g>
     <g id="text_14">
      <!-- 35000 -->
      <g transform="translate(18.7875 119.826084)scale(0.1 -0.1)">
       <use xlink:href="#DejaVuSans-51"/>
       <use x="63.623047" xlink:href="#DejaVuSans-53"/>
       <use x="127.246094" xlink:href="#DejaVuSans-48"/>
       <use x="190.869141" xlink:href="#DejaVuSans-48"/>
       <use x="254.492188" xlink:href="#DejaVuSans-48"/>
      </g>
     </g>
    </g>
    <g id="ytick_8">
     <g id="line2d_27">
      <path clip-path="url(#pbe2d7e1ed7)" d="M 57.6 85.998565 
L 414.72 85.998565 
" style="fill:none;stroke:#b0b0b0;stroke-linecap:square;stroke-width:0.8;"/>
     </g>
     <g id="line2d_28">
      <g>
       <use style="stroke:#000000;stroke-width:0.8;" x="57.6" xlink:href="#m73de39fedd" y="85.998565"/>
      </g>
     </g>
     <g id="text_15">
      <!-- 40000 -->
      <defs>
       <path d="M 37.796875 64.3125 
L 12.890625 25.390625 
L 37.796875 25.390625 
z
M 35.203125 72.90625 
L 47.609375 72.90625 
L 47.609375 25.390625 
L 58.015625 25.390625 
L 58.015625 17.1875 
L 47.609375 17.1875 
L 47.609375 0 
L 37.796875 0 
L 37.796875 17.1875 
L 4.890625 17.1875 
L 4.890625 26.703125 
z
" id="DejaVuSans-52"/>
      </defs>
      <g transform="translate(18.7875 89.797783)scale(0.1 -0.1)">
       <use xlink:href="#DejaVuSans-52"/>
       <use x="63.623047" xlink:href="#DejaVuSans-48"/>
       <use x="127.246094" xlink:href="#DejaVuSans-48"/>
       <use x="190.869141" xlink:href="#DejaVuSans-48"/>
       <use x="254.492188" xlink:href="#DejaVuSans-48"/>
      </g>
     </g>
    </g>
    <g id="ytick_9">
     <g id="line2d_29">
      <path clip-path="url(#pbe2d7e1ed7)" d="M 57.6 55.970264 
L 414.72 55.970264 
" style="fill:none;stroke:#b0b0b0;stroke-linecap:square;stroke-width:0.8;"/>
     </g>
     <g id="line2d_30">
      <g>
       <use style="stroke:#000000;stroke-width:0.8;" x="57.6" xlink:href="#m73de39fedd" y="55.970264"/>
      </g>
     </g>
     <g id="text_16">
      <!-- 45000 -->
      <g transform="translate(18.7875 59.769483)scale(0.1 -0.1)">
       <use xlink:href="#DejaVuSans-52"/>
       <use x="63.623047" xlink:href="#DejaVuSans-53"/>
       <use x="127.246094" xlink:href="#DejaVuSans-48"/>
       <use x="190.869141" xlink:href="#DejaVuSans-48"/>
       <use x="254.492188" xlink:href="#DejaVuSans-48"/>
      </g>
     </g>
    </g>
    <g id="text_17">
     <!-- Price -->
     <defs>
      <path d="M 19.671875 64.796875 
L 19.671875 37.40625 
L 32.078125 37.40625 
Q 38.96875 37.40625 42.71875 40.96875 
Q 46.484375 44.53125 46.484375 51.125 
Q 46.484375 57.671875 42.71875 61.234375 
Q 38.96875 64.796875 32.078125 64.796875 
z
M 9.8125 72.90625 
L 32.078125 72.90625 
Q 44.34375 72.90625 50.609375 67.359375 
Q 56.890625 61.8125 56.890625 51.125 
Q 56.890625 40.328125 50.609375 34.8125 
Q 44.34375 29.296875 32.078125 29.296875 
L 19.671875 29.296875 
L 19.671875 0 
L 9.8125 0 
z
" id="DejaVuSans-80"/>
      <path d="M 41.109375 46.296875 
Q 39.59375 47.171875 37.8125 47.578125 
Q 36.03125 48 33.890625 48 
Q 26.265625 48 22.1875 43.046875 
Q 18.109375 38.09375 18.109375 28.8125 
L 18.109375 0 
L 9.078125 0 
L 9.078125 54.6875 
L 18.109375 54.6875 
L 18.109375 46.1875 
Q 20.953125 51.171875 25.484375 53.578125 
Q 30.03125 56 36.53125 56 
Q 37.453125 56 38.578125 55.875 
Q 39.703125 55.765625 41.0625 55.515625 
z
" id="DejaVuSans-114"/>
      <path d="M 48.78125 52.59375 
L 48.78125 44.1875 
Q 44.96875 46.296875 41.140625 47.34375 
Q 37.3125 48.390625 33.40625 48.390625 
Q 24.65625 48.390625 19.8125 42.84375 
Q 14.984375 37.3125 14.984375 27.296875 
Q 14.984375 17.28125 19.8125 11.734375 
Q 24.65625 6.203125 33.40625 6.203125 
Q 37.3125 6.203125 41.140625 7.25 
Q 44.96875 8.296875 48.78125 10.40625 
L 48.78125 2.09375 
Q 45.015625 0.34375 40.984375 -0.53125 
Q 36.96875 -1.421875 32.421875 -1.421875 
Q 20.0625 -1.421875 12.78125 6.34375 
Q 5.515625 14.109375 5.515625 27.296875 
Q 5.515625 40.671875 12.859375 48.328125 
Q 20.21875 56 33.015625 56 
Q 37.15625 56 41.109375 55.140625 
Q 45.0625 54.296875 48.78125 52.59375 
z
" id="DejaVuSans-99"/>
     </defs>
     <g transform="translate(12.707813 186.725656)rotate(-90)scale(0.1 -0.1)">
      <use xlink:href="#DejaVuSans-80"/>
      <use x="58.552734" xlink:href="#DejaVuSans-114"/>
      <use x="99.666016" xlink:href="#DejaVuSans-105"/>
      <use x="127.449219" xlink:href="#DejaVuSans-99"/>
      <use x="182.429688" xlink:href="#DejaVuSans-101"/>
     </g>
    </g>
   </g>
   <g id="patch_3">
    <path d="M 57.6 307.584 
L 57.6 41.472 
" style="fill:none;stroke:#000000;stroke-linecap:square;stroke-linejoin:miter;stroke-width:0.8;"/>
   </g>
   <g id="patch_4">
    <path d="M 414.72 307.584 
L 414.72 41.472 
" style="fill:none;stroke:#000000;stroke-linecap:square;stroke-linejoin:miter;stroke-width:0.8;"/>
   </g>
   <g id="patch_5">
    <path d="M 57.6 307.584 
L 414.72 307.584 
" style="fill:none;stroke:#000000;stroke-linecap:square;stroke-linejoin:miter;stroke-width:0.8;"/>
   </g>
   <g id="patch_6">
    <path d="M 57.6 41.472 
L 414.72 41.472 
" style="fill:none;stroke:#000000;stroke-linecap:square;stroke-linejoin:miter;stroke-width:0.8;"/>
   </g>
   <g id="text_18">
    <!-- Scatterplot of Engine Size vs Price -->
    <defs>
     <path d="M 34.28125 27.484375 
Q 23.390625 27.484375 19.1875 25 
Q 14.984375 22.515625 14.984375 16.5 
Q 14.984375 11.71875 18.140625 8.90625 
Q 21.296875 6.109375 26.703125 6.109375 
Q 34.1875 6.109375 38.703125 11.40625 
Q 43.21875 16.703125 43.21875 25.484375 
L 43.21875 27.484375 
z
M 52.203125 31.203125 
L 52.203125 0 
L 43.21875 0 
L 43.21875 8.296875 
Q 40.140625 3.328125 35.546875 0.953125 
Q 30.953125 -1.421875 24.3125 -1.421875 
Q 15.921875 -1.421875 10.953125 3.296875 
Q 6 8.015625 6 15.921875 
Q 6 25.140625 12.171875 29.828125 
Q 18.359375 34.515625 30.609375 34.515625 
L 43.21875 34.515625 
L 43.21875 35.40625 
Q 43.21875 41.609375 39.140625 45 
Q 35.0625 48.390625 27.6875 48.390625 
Q 23 48.390625 18.546875 47.265625 
Q 14.109375 46.140625 10.015625 43.890625 
L 10.015625 52.203125 
Q 14.9375 54.109375 19.578125 55.046875 
Q 24.21875 56 28.609375 56 
Q 40.484375 56 46.34375 49.84375 
Q 52.203125 43.703125 52.203125 31.203125 
z
" id="DejaVuSans-97"/>
     <path d="M 18.3125 70.21875 
L 18.3125 54.6875 
L 36.8125 54.6875 
L 36.8125 47.703125 
L 18.3125 47.703125 
L 18.3125 18.015625 
Q 18.3125 11.328125 20.140625 9.421875 
Q 21.96875 7.515625 27.59375 7.515625 
L 36.8125 7.515625 
L 36.8125 0 
L 27.59375 0 
Q 17.1875 0 13.234375 3.875 
Q 9.28125 7.765625 9.28125 18.015625 
L 9.28125 47.703125 
L 2.6875 47.703125 
L 2.6875 54.6875 
L 9.28125 54.6875 
L 9.28125 70.21875 
z
" id="DejaVuSans-116"/>
     <path d="M 18.109375 8.203125 
L 18.109375 -20.796875 
L 9.078125 -20.796875 
L 9.078125 54.6875 
L 18.109375 54.6875 
L 18.109375 46.390625 
Q 20.953125 51.265625 25.265625 53.625 
Q 29.59375 56 35.59375 56 
Q 45.5625 56 51.78125 48.09375 
Q 58.015625 40.1875 58.015625 27.296875 
Q 58.015625 14.40625 51.78125 6.484375 
Q 45.5625 -1.421875 35.59375 -1.421875 
Q 29.59375 -1.421875 25.265625 0.953125 
Q 20.953125 3.328125 18.109375 8.203125 
z
M 48.6875 27.296875 
Q 48.6875 37.203125 44.609375 42.84375 
Q 40.53125 48.484375 33.40625 48.484375 
Q 26.265625 48.484375 22.1875 42.84375 
Q 18.109375 37.203125 18.109375 27.296875 
Q 18.109375 17.390625 22.1875 11.75 
Q 26.265625 6.109375 33.40625 6.109375 
Q 40.53125 6.109375 44.609375 11.75 
Q 48.6875 17.390625 48.6875 27.296875 
z
" id="DejaVuSans-112"/>
     <path d="M 9.421875 75.984375 
L 18.40625 75.984375 
L 18.40625 0 
L 9.421875 0 
z
" id="DejaVuSans-108"/>
     <path d="M 30.609375 48.390625 
Q 23.390625 48.390625 19.1875 42.75 
Q 14.984375 37.109375 14.984375 27.296875 
Q 14.984375 17.484375 19.15625 11.84375 
Q 23.34375 6.203125 30.609375 6.203125 
Q 37.796875 6.203125 41.984375 11.859375 
Q 46.1875 17.53125 46.1875 27.296875 
Q 46.1875 37.015625 41.984375 42.703125 
Q 37.796875 48.390625 30.609375 48.390625 
z
M 30.609375 56 
Q 42.328125 56 49.015625 48.375 
Q 55.71875 40.765625 55.71875 27.296875 
Q 55.71875 13.875 49.015625 6.21875 
Q 42.328125 -1.421875 30.609375 -1.421875 
Q 18.84375 -1.421875 12.171875 6.21875 
Q 5.515625 13.875 5.515625 27.296875 
Q 5.515625 40.765625 12.171875 48.375 
Q 18.84375 56 30.609375 56 
z
" id="DejaVuSans-111"/>
     <path d="M 37.109375 75.984375 
L 37.109375 68.5 
L 28.515625 68.5 
Q 23.6875 68.5 21.796875 66.546875 
Q 19.921875 64.59375 19.921875 59.515625 
L 19.921875 54.6875 
L 34.71875 54.6875 
L 34.71875 47.703125 
L 19.921875 47.703125 
L 19.921875 0 
L 10.890625 0 
L 10.890625 47.703125 
L 2.296875 47.703125 
L 2.296875 54.6875 
L 10.890625 54.6875 
L 10.890625 58.5 
Q 10.890625 67.625 15.140625 71.796875 
Q 19.390625 75.984375 28.609375 75.984375 
z
" id="DejaVuSans-102"/>
     <path d="M 2.984375 54.6875 
L 12.5 54.6875 
L 29.59375 8.796875 
L 46.6875 54.6875 
L 56.203125 54.6875 
L 35.6875 0 
L 23.484375 0 
z
" id="DejaVuSans-118"/>
     <path d="M 44.28125 53.078125 
L 44.28125 44.578125 
Q 40.484375 46.53125 36.375 47.5 
Q 32.28125 48.484375 27.875 48.484375 
Q 21.1875 48.484375 17.84375 46.4375 
Q 14.5 44.390625 14.5 40.28125 
Q 14.5 37.15625 16.890625 35.375 
Q 19.28125 33.59375 26.515625 31.984375 
L 29.59375 31.296875 
Q 39.15625 29.25 43.1875 25.515625 
Q 47.21875 21.78125 47.21875 15.09375 
Q 47.21875 7.46875 41.1875 3.015625 
Q 35.15625 -1.421875 24.609375 -1.421875 
Q 20.21875 -1.421875 15.453125 -0.5625 
Q 10.6875 0.296875 5.421875 2 
L 5.421875 11.28125 
Q 10.40625 8.6875 15.234375 7.390625 
Q 20.0625 6.109375 24.8125 6.109375 
Q 31.15625 6.109375 34.5625 8.28125 
Q 37.984375 10.453125 37.984375 14.40625 
Q 37.984375 18.0625 35.515625 20.015625 
Q 33.0625 21.96875 24.703125 23.78125 
L 21.578125 24.515625 
Q 13.234375 26.265625 9.515625 29.90625 
Q 5.8125 33.546875 5.8125 39.890625 
Q 5.8125 47.609375 11.28125 51.796875 
Q 16.75 56 26.8125 56 
Q 31.78125 56 36.171875 55.265625 
Q 40.578125 54.546875 44.28125 53.078125 
z
" id="DejaVuSans-115"/>
    </defs>
    <g transform="translate(133.5 35.472)scale(0.12 -0.12)">
     <use xlink:href="#DejaVuSans-83"/>
     <use x="63.476562" xlink:href="#DejaVuSans-99"/>
     <use x="118.457031" xlink:href="#DejaVuSans-97"/>
     <use x="179.736328" xlink:href="#DejaVuSans-116"/>
     <use x="218.945312" xlink:href="#DejaVuSans-116"/>
     <use x="258.154297" xlink:href="#DejaVuSans-101"/>
     <use x="319.677734" xlink:href="#DejaVuSans-114"/>
     <use x="360.791016" xlink:href="#DejaVuSans-112"/>
     <use x="424.267578" xlink:href="#DejaVuSans-108"/>
     <use x="452.050781" xlink:href="#DejaVuSans-111"/>
     <use x="513.232422" xlink:href="#DejaVuSans-116"/>
     <use x="552.441406" xlink:href="#DejaVuSans-32"/>
     <use x="584.228516" xlink:href="#DejaVuSans-111"/>
     <use x="645.410156" xlink:href="#DejaVuSans-102"/>
     <use x="680.615234" xlink:href="#DejaVuSans-32"/>
     <use x="712.402344" xlink:href="#DejaVuSans-69"/>
     <use x="775.585938" xlink:href="#DejaVuSans-110"/>
     <use x="838.964844" xlink:href="#DejaVuSans-103"/>
     <use x="902.441406" xlink:href="#DejaVuSans-105"/>
     <use x="930.224609" xlink:href="#DejaVuSans-110"/>
     <use x="993.603516" xlink:href="#DejaVuSans-101"/>
     <use x="1055.126953" xlink:href="#DejaVuSans-32"/>
     <use x="1086.914062" xlink:href="#DejaVuSans-83"/>
     <use x="1150.390625" xlink:href="#DejaVuSans-105"/>
     <use x="1178.173828" xlink:href="#DejaVuSans-122"/>
     <use x="1230.664062" xlink:href="#DejaVuSans-101"/>
     <use x="1292.1875" xlink:href="#DejaVuSans-32"/>
     <use x="1323.974609" xlink:href="#DejaVuSans-118"/>
     <use x="1383.154297" xlink:href="#DejaVuSans-115"/>
     <use x="1435.253906" xlink:href="#DejaVuSans-32"/>
     <use x="1467.041016" xlink:href="#DejaVuSans-80"/>
     <use x="1525.59375" xlink:href="#DejaVuSans-114"/>
     <use x="1566.707031" xlink:href="#DejaVuSans-105"/>
     <use x="1594.490234" xlink:href="#DejaVuSans-99"/>
     <use x="1649.470703" xlink:href="#DejaVuSans-101"/>
    </g>
   </g>
  </g>
 </g>
 <defs>
  <clipPath id="pbe2d7e1ed7">
   <rect height="266.112" width="357.12" x="57.6" y="41.472"/>
  </clipPath>
 </defs>
</svg>
